<svg id="Capa_1" data-name="Capa 1" xmlns="http://www.w3.org/2000/svg" viewBox="0 0 997.06 137.13"><defs><style>.cls-1{fill:#9ca3af;}.cls-2{fill:#fff;}.cls-3{fill:#fcfcfc;}.cls-4{fill:#f9f9f9;}</style></defs><path class="cls-1" d="M412.37,515.08c1.69-1.59,2.84-2.66,4-3.75,10.12-9.83,31.35-9.77,39.86,2.67,1.15,1.69,1.81,1.77,3.21.13,8.07-9.47,18.52-11.42,30.08-8.75,10.91,2.53,17.95,11.23,18.22,23.4.41,19,.14,38,.24,57,0,2.2-1.05,2.36-2.75,2.34-5.22-.07-10.44-.17-15.66,0-2.62.1-3.34-.68-3.32-3.3.12-15.15.06-30.3.06-45.45,0-1.24,0-2.48,0-3.72-.27-7.26-4-11.61-10.46-12.31-6.94-.75-13.12,3.29-14.8,9.78a26.21,26.21,0,0,0-.77,6.63c.05,14.9,0,29.8.1,44.7,0,3-.83,3.83-3.74,3.68a124.57,124.57,0,0,0-13.8,0c-3.22.2-3.87-1-3.84-4,.15-14.9.08-29.8.05-44.7a40.75,40.75,0,0,0-.32-4.81c-.9-7.41-4.42-11-10.87-11.31-7.15-.29-12.64,3.87-14,10.74a30.8,30.8,0,0,0-.57,5.9c-.05,14.78-.13,29.56.05,44.33,0,3.18-.92,4-4,3.84-5-.25-9.94-.13-14.91,0-2,0-2.89-.37-2.88-2.64q.1-38,0-76c0-2.08.62-2.84,2.75-2.79,5.1.13,10.2.17,15.29,0,2.45-.09,3,.93,2.81,3.06C412.27,511.29,412.37,512.85,412.37,515.08Z" transform="translate(-58.67 -484.32)"/><path class="cls-1" d="M79.5,515.12c4-3.86,7.5-7.14,12.09-8.86,9.25-3.48,24-3.13,31.71,7.71,1.47,2.06,2.16,1.46,3.43-.09,11-13.4,32.23-11,40.31-3.1A26.06,26.06,0,0,1,175,529.83c.2,18.5,0,37,.13,55.51,0,2.5-1,2.82-3.09,2.77-5-.11-9.95-.19-14.91,0-2.85.13-3.8-.59-3.77-3.63.17-16.14.1-32.29.07-48.43,0-4.86-1.25-9.23-6.11-11.42-5.17-2.33-10.27-1.88-14.75,1.65-4,3.16-5.15,7.73-5.15,12.64,0,15.15-.08,30.3.05,45.45,0,2.85-.63,3.93-3.66,3.75a136.68,136.68,0,0,0-14.17,0c-2.83.13-3.56-.78-3.53-3.55.13-15.28.06-30.55.05-45.83a32.6,32.6,0,0,0-.16-4.08c-.92-7.28-4.59-11-11-11.35C88,523,82.6,527,81,533.65a25.36,25.36,0,0,0-.67,5.9c0,15,0,30.05.09,45.08,0,2.8-.74,3.63-3.54,3.51-5.09-.23-10.19-.18-15.29,0-2.33.07-2.92-.73-2.92-3q.11-37.62,0-75.26c0-2.36.58-3.3,3.11-3.2,4.84.18,9.7.21,14.54,0,2.76-.13,3.49.93,3.21,3.42C79.37,511.51,79.5,513,79.5,515.12Z" transform="translate(-58.67 -484.32)"/><path class="cls-1" d="M354.74,579c-7.12,9.16-16.43,12.36-27.17,12-14.39-.41-23.27-9.56-23.4-24a42.2,42.2,0,0,1,.58-8.89,19.85,19.85,0,0,1,11-14.57c6.77-3.43,14.12-4.56,21.53-5.44,4.32-.51,8.64-1,12.65-2.86,2.83-1.34,4.58-3.25,4.32-6.65s-1.81-5.75-4.92-6.78a24.65,24.65,0,0,0-15.38-.1c-3.62,1.13-6.07,3.71-6.37,7.49-.22,2.68-1.45,2.89-3.56,2.85-4.6-.1-9.21-.19-13.81,0-2.75.12-3.3-1-3.24-3.45.26-10.69,7.24-19.9,18.49-23A58.41,58.41,0,0,1,361.75,507c9.63,3.5,14.05,10.28,14.05,20.55q0,22.92,0,45.84c0,3.9.22,7.73,3.68,10.44,1.19.92.94,2.3.63,3.45-.36,1.33-1.68.74-2.56.75-5.6.06-11.2-.17-16.79.11-3,.16-4.28-1.07-4.79-3.75C355.67,582.74,355.23,581.12,354.74,579Z" transform="translate(-58.67 -484.32)"/><path class="cls-1" d="M655.64,547.5c-.08-9,1.23-17.31,5.52-24.83,8.08-14.15,21-19.2,36.64-19,13.74.12,25.35,4.61,33.34,16.29,11.74,17.15,9.28,46.66-4.94,60.49-7.44,7.25-16.73,10-26.8,10.41-16.75.7-32-5.18-39.68-22A48.78,48.78,0,0,1,655.64,547.5Z" transform="translate(-58.67 -484.32)"/><path class="cls-1" d="M559.28,503.62c16.48.06,29.92,5.9,36.9,21.56,6.63,14.87,6.55,30.36-.46,45.08-7.92,16.62-23.51,21.14-39,20.53a43.45,43.45,0,0,1-16.62-3.62,35.32,35.32,0,0,1-19.39-21.5,57,57,0,0,1-1-33.72C524.62,513.59,538.85,503.54,559.28,503.62Z" transform="translate(-58.67 -484.32)"/><path class="cls-1" d="M262.78,564.63l9.28-32.4c2.15-7.51,4.41-15,6.37-22.53.64-2.47,1.82-3.07,4.16-3,5.59.14,11.19.16,16.78,0,2.74-.08,3,.63,2.14,3.12-7.8,22.08-15.47,44.2-23.19,66.31-3,8.66-6.22,17.26-9.08,26-5.74,17.51-14.79,20.84-34.36,18.86-1.32-.13-1.63-.78-1.63-2,0-4.59,0-9.18,0-13.78,0-1.6.4-2.13,2.17-1.87a20.33,20.33,0,0,0,5.56-.12c8.48-1.19,12.26-7.54,9.35-15.68q-12-33.62-24-67.2c-1.21-3.39-2.27-6.83-3.66-10.14-1.11-2.61-1-3.67,2.32-3.53,5.7.24,11.44.21,17.15,0,2.68-.1,3.88.72,4.63,3.36,4.86,17,9.9,34,14.89,51C261.87,562,262.21,562.89,262.78,564.63Z" transform="translate(-58.67 -484.32)"/><path class="cls-1" d="M615.88,548.94c0-7.82-.07-15.65,0-23.47,0-2.45-.49-3.54-3.27-3.55-7.71,0-7.71-.15-7.71-7.75,0-7.35,0-7.53,7.3-7.36,3.13.07,3.78-1.09,3.69-3.88-.17-5.21.05-10.43-.09-15.65-.06-2.31.75-3,3-2.95,5.22.13,10.45.15,15.67,0,2.41-.07,3.28.62,3.21,3.12-.17,5.46,0,10.93-.1,16.39-.06,2.3.73,3,3,3,3.08,0,7.09-1.36,9,.53,2.1,2.06.66,6.13.7,9.31.06,6,.76,5.31-5.36,5.35-7.29,0-7.29,0-7.29,7.15q0,18.27,0,36.53c0,5.34.85,6.21,6.2,6.51,6.48.36,6.54.36,6.46,6.87,0,3.08,1.29,7-.52,9s-5.85.71-8.91.88a44.23,44.23,0,0,1-13-.73c-7.82-1.9-11.39-6.27-11.74-15.43-.31-7.94-.07-15.9-.07-23.84Z" transform="translate(-58.67 -484.32)"/><path class="cls-1" d="M211.61,547.43c0,12.41-.1,24.82.07,37.23,0,2.83-.77,3.6-3.54,3.48-5.21-.22-10.44-.14-15.65,0-2.08,0-2.81-.59-2.81-2.73q.09-38,0-75.95c0-2.14.77-2.77,2.82-2.73,5.34.1,10.69.15,16,0,2.47-.08,3.14.74,3.12,3.15C211.55,522.36,211.61,534.9,211.61,547.43Z" transform="translate(-58.67 -484.32)"/><path class="cls-1" d="M747.37,577.61A12.32,12.32,0,0,1,760,565a12.73,12.73,0,1,1-.17,25.45A12.34,12.34,0,0,1,747.37,577.61Z" transform="translate(-58.67 -484.32)"/><path class="cls-1" d="M924.7,503c8.86,0,14,8.58,10.51,17.71-.61,1.61-1.65,2.95.25,4.5,1.22,1-.27,1.67-.82,2.34s-1.41,1.34-2.12.3c-1.38-2-2.91-.89-4.55-.54-4.65,1-9.07.47-12.16-3.5-3.52-4.52-3.53-9.7-1.34-14.77C916.35,504.69,920.09,503,924.7,503Z" transform="translate(-58.67 -484.32)"/><path class="cls-1" d="M984.82,547.49c0-.5,0-1,0-1.49.25-3.29-.56-6.62.46-9.87,5.05-.22,10.18-1,15.07.62,3.53,1.18,4.68,6.4,2.24,9.78-.93,1.28-1.2,1.88-.23,3.33,1.72,2.55.55,5.8,1.53,8.66.4,1.16-1.19.93-1.92.88-1.34-.09-3.21.73-3.61-1.5a19.88,19.88,0,0,1-.21-3.7c0-2.65-1.21-3.56-3.85-3.79-3.62-.32-4.81.87-4.5,4.48.13,1.5,1.57,4.24-1.9,4.55-2,.17-3.33-.06-3.14-2.67C985,553.69,984.82,550.58,984.82,547.49Z" transform="translate(-58.67 -484.32)"/><path class="cls-1" d="M851.34,547.37c0-3,.09-6,0-8.92-.08-1.88.46-2.68,2.48-2.58,3.34.16,6.71-.09,10,.15,6,.43,8.65,6.1,5,10.94-.87,1.15-.82,1.48,0,2.57,2,2.65.5,6.05,1.62,9,.4,1.05-1.21.91-2,.87-1.39-.07-3.21.49-3.58-1.67a19.06,19.06,0,0,1-.2-3.7c.08-2.55-1.17-3.48-3.62-3.57-4.61-.16-4.51-.24-4.66,4.52,0,1.86,1.36,4.83-2.74,4.5-1.72-.14-2.4-.68-2.35-2.44C851.42,553.82,851.34,550.6,851.34,547.37Z" transform="translate(-58.67 -484.32)"/><path class="cls-1" d="M836.39,577.61c0,4-.06,7.92,0,11.87,0,1.78-.6,2.36-2.37,2.37s-2.38-.62-2.36-2.38c.08-6,0-11.92.06-17.87,0-1.1-.66-2.8,1.19-3s3.67-.67,4.9,1.52A110.77,110.77,0,0,0,846,582.76c0-3.87.06-7.74,0-11.61,0-1.76.28-2.76,2.4-2.75s2.82.72,2.78,2.82c-.11,5.71,0,11.42-.08,17.12,0,1.18.89,3.07-1.18,3.36-1.87.26-3.91.64-5.2-1.68-2.4-4.3-5-8.48-7.52-12.71Z" transform="translate(-58.67 -484.32)"/><path class="cls-1" d="M1025.06,591.4c-5.64.86-5.64.86-5.91-4.36-.18-3.6-4.51-6.08-7.47-4-1.9,1.36-.79,3.92-.76,5.9,0,2.35-.82,3-3,2.88-1.54-.09-2.2-.49-2.18-2.13.06-6.32.07-12.63,0-19,0-1.8.68-2.39,2.41-2.34,3.47.1,7-.09,10.42.12,5.49.33,8.13,5.55,5.08,10.18-1,1.44-1.22,2.17-.18,3.72C1025.21,585.13,1023.51,588.55,1025.06,591.4Z" transform="translate(-58.67 -484.32)"/><path class="cls-1" d="M884.31,585.75a29.58,29.58,0,0,1,0,3c-.12,1,.58,2.4-.86,2.91a1.88,1.88,0,0,1-2.66-1.15c-.65-1.36-1.37.1-2,.46-5.37,3.13-11.93,1.38-14.53-4.25-2.24-4.86-2.25-9.93.72-14.57,2.71-4.25,7-4.69,11.57-4.14a8.8,8.8,0,0,1,6.27,3.63c.75,1,2.07,2.52.81,3.57a3.6,3.6,0,0,1-4.48-.22c-4.07-3.3-7.25-3.6-9.53-.83-2.64,3.21-2.31,9.68.68,12.35a5.59,5.59,0,0,0,6.88.78c1.26-.67,2.38-1.75,2.25-3.16-.15-1.64-1.76-.92-2.74-1-1.51-.1-1.81-.91-1.83-2.2,0-1.5.8-1.77,2.1-1.91C884.14,578.25,884.31,578.38,884.31,585.75Z" transform="translate(-58.67 -484.32)"/><path class="cls-1" d="M947,580.13c0-3.11.06-6.21,0-9.31-.05-1.91.69-2.68,2.62-2.64,4.1.08,8.2.06,12.31,0,1.66,0,2.52.49,2.53,2.33,0,2.09-1.3,2-2.74,2-2.23,0-4.47,0-6.71,0-1.55,0-2.92-.14-3,2.19s1.38,2.49,3.13,2.45c2,0,4,0,6,0,1.59,0,2.18.62,2.18,2.22s-.67,2.19-2.23,2.13c-1.86-.08-3.73,0-5.59,0-2-.09-3.48,0-3.5,2.82s1.3,3.22,3.6,3.08,4.48,0,6.71-.05c1.62,0,2.53.28,2.53,2.21s-.71,2.34-2.43,2.31c-4.35-.08-8.7-.09-13,0-1.82,0-2.4-.67-2.36-2.4C947.07,586.33,947,583.23,947,580.13Z" transform="translate(-58.67 -484.32)"/><path class="cls-1" d="M802.22,579.89c0-3,0-6,0-8.94-.05-1.79.44-2.81,2.49-2.77,4.22.08,8.45.05,12.68,0,1.55,0,2.24.62,2.27,2.21s-.69,2.18-2.24,2.14c-2.61-.06-5.23.06-7.83,0-1.74-.07-2.43.51-2.42,2.33s.73,2.4,2.45,2.32c2.11-.09,4.22,0,6.34,0,1.64-.06,2.49.36,2.49,2.27,0,2.07-1.15,2.12-2.63,2.08-1.74,0-3.5.13-5.22,0-2.48-.24-3.45.44-3.5,3.2-.05,3,1.66,2.72,3.55,2.7,2.37,0,4.73.09,7.09,0,1.87-.1,2.3.74,2.29,2.43s-.73,2.1-2.26,2.08q-6.72-.09-13.43,0c-1.67,0-2.15-.73-2.12-2.26C802.26,586.35,802.22,583.12,802.22,579.89Z" transform="translate(-58.67 -484.32)"/><path class="cls-1" d="M929.6,582.69c0-4,.06-7.93,0-11.89,0-1.77.6-2.4,2.37-2.38s2.4.73,2.39,2.45c-.05,5.82,0,11.64-.06,17.47,0,1.17.85,3-1.19,3.36s-3.77.44-5-1.91A74.76,74.76,0,0,0,920,577.58c0,3.87-.06,7.74,0,11.6,0,1.8-.35,2.69-2.44,2.68s-2.45-.94-2.43-2.72c.07-5.7,0-11.4.06-17.1,0-1.28-.84-3.25,1.52-3.51,1.82-.21,3.59-.39,4.77,1.79,2.33,4.3,5,8.45,7.46,12.67Z" transform="translate(-58.67 -484.32)"/><path class="cls-1" d="M889.6,515.53c0-3.23.08-6.45,0-9.67-.07-2,1-2.15,2.58-2.16s2.41.23,2.53,2.18c.37,6.53.47,6.42,6.89,6.34,2.17,0,2.88-.72,2.66-2.78-.13-1.23.06-2.48,0-3.72-.15-1.74.76-2.06,2.24-2s2.73-.1,2.71,2q-.1,9.67,0,19.35c0,2.1-1.27,2-2.7,2s-2.41-.24-2.25-2c.1-1.11,0-2.23,0-3.35,0-5.11,0-4.88-5.11-5.18-3.5-.21-5.15.67-4.49,4.39a14.09,14.09,0,0,1,0,2.6c0,1.78.57,3.71-2.59,3.62-2.85-.09-2.44-1.75-2.44-3.46Z" transform="translate(-58.67 -484.32)"/><path class="cls-1" d="M865.73,526.78c-5.4.6-5.4.6-5.89-4.5-.35-3.63-5-6.23-7.75-4-1.76,1.41-.63,4-.69,6s-.2,3.09-2.58,2.91c-1.51-.12-2.23-.45-2.21-2.11.07-6.33.08-12.65,0-19,0-1.79.62-2.38,2.37-2.32,3.35.1,6.71-.06,10.06.05,5.09.16,8.18,4.46,5.91,9a7.43,7.43,0,0,0-.37,6.49C865.33,521.58,864.84,524.3,865.73,526.78Z" transform="translate(-58.67 -484.32)"/><path class="cls-1" d="M811.12,560.2c-3.43-.32-6.82-.68-8.73-4-.63-1.11-1.88-2.87-.65-3.57s3.5-1.33,4.84.81c1.64,2.65,4.13,2.87,6.84,2.1a2.36,2.36,0,0,0,1.94-2,2.18,2.18,0,0,0-1.48-2.35,59.44,59.44,0,0,0-6.72-2.09c-3.57-.9-5.65-2.88-5.51-6.78s1.91-5.75,6.18-6.63c4.9-1,9.2.34,10.84,3.57.58,1.12,1.7,2.76.09,3.55-1.18.58-3.21,1.13-4.17-.93a3.56,3.56,0,0,0-3.15-2.25c-2-.11-4.39-.39-4.85,2.16-.42,2.31,2,2.47,3.54,3,1.75.62,3.57,1,5.36,1.5,3.33.88,5.11,3.06,5,6.47-.16,3.63-2.2,6-5.7,6.93A28.17,28.17,0,0,1,811.12,560.2Z" transform="translate(-58.67 -484.32)"/><path class="cls-1" d="M1045.18,567.86c3.41-.14,6.49.51,8.21,3.86.52,1,1.6,2.54.21,3.26s-3.31,1.07-4.31-.72c-1.34-2.4-3.38-2.72-5.71-2.31a2.38,2.38,0,0,0-2.22,2.16,2.24,2.24,0,0,0,1.78,2.49c2.47.78,5,1.39,7.48,2.18s4.13,2.27,4.34,5-.33,5.18-2.71,6.92c-3.94,2.87-11.61,2.37-14.47-1.09-1.15-1.39-2.68-3.46-1-4.83,1.34-1.11,3.75-1,4.86,1.49a3.32,3.32,0,0,0,3.07,1.82c1.93,0,4.41.67,5.07-1.84.71-2.7-1.9-3-3.68-3.72-1.27-.48-2.63-.71-3.94-1.09-4.66-1.32-6.28-3.46-5.8-7.6.42-3.52,3.13-5.73,7.36-6C1044.18,567.84,1044.68,567.86,1045.18,567.86Z" transform="translate(-58.67 -484.32)"/><path class="cls-1" d="M990.79,512.42c5-3,6.76-10.63,14.65-8.31-2.43,2.53-4.59,5-7,7.23-1.57,1.42-1.42,2.39-.22,3.94,2.85,3.68,5.5,7.51,8.32,11.4-3.88,1.05-6.62.42-8.39-3.09a28.75,28.75,0,0,0-3.42-4.85c-.52-.66-.7-2.2-2-1.53a2.93,2.93,0,0,0-1.87,2.57c0,1.49-.1,3,0,4.46.14,1.89-.17,2.94-2.52,2.91s-2.68-.89-2.64-2.88c.1-5.94.11-11.89,0-17.83,0-2.1.62-2.77,2.74-2.77s2.57.75,2.44,2.61S990.79,510.14,990.79,512.42Z" transform="translate(-58.67 -484.32)"/><path class="cls-1" d="M940,512.53c0-2.11.11-4.22,0-6.32s.38-2.88,2.62-2.86,2.59,1.15,2.55,3c-.09,4.09,0,8.18,0,12.27,0,2.74,1,4.49,4.11,4.6,3.26.11,4.46-1.68,4.49-4.58,0-4.22.09-8.44,0-12.65,0-1.9.57-2.64,2.55-2.66s2.59.67,2.54,2.6c-.11,4.46.06,8.93-.07,13.39-.16,5.57-3.56,8.43-9.61,8.35-5.81-.08-9-3-9.12-8.47C940,517,940,514.77,940,512.53Z" transform="translate(-58.67 -484.32)"/><path class="cls-1" d="M957.33,545c0-2,.06-4,0-6s0-3.19,2.64-3.22c2.85,0,2.5,1.56,2.49,3.3,0,4,0,7.93,0,11.89,0,2.72,1.09,4.51,4.13,4.61s4.57-1.66,4.65-4.53c.13-4.21.12-8.43,0-12.64,0-1.89.45-2.64,2.48-2.59,1.85,0,2.7.45,2.62,2.48-.2,4.83,0,9.68-.37,14.47-.44,5-4,7.52-9.38,7.38-5.56-.15-8.92-3-9.23-8.14C957.21,549.68,957.33,547.32,957.33,545Z" transform="translate(-58.67 -484.32)"/><path class="cls-1" d="M897.38,544.85c0,2.35.12,4.71,0,7.06-.34,5.29-3.82,8.26-9.49,8.26s-9-2.69-9.26-8c-.29-4.7-.06-9.42-.23-14.13-.08-2.31,1.3-2.12,2.86-2.22,1.92-.11,2.27.78,2.23,2.43-.09,3.72-.05,7.44,0,11.16,0,4.55,1.27,6.18,4.57,6.13s4.25-1.49,4.26-6c0-3.84.09-7.69,0-11.53-.07-1.89.7-2.29,2.4-2.24s2.94,0,2.78,2.29S897.38,542.61,897.38,544.85Z" transform="translate(-58.67 -484.32)"/><path class="cls-1" d="M802.28,515.34c0-3.1.07-6.2,0-9.3-.06-1.79.65-2.37,2.4-2.33,4.22.08,8.44.06,12.65,0,1.51,0,2.28.38,2.28,2.07s-1,1.94-2.42,1.92c-2.6,0-5.22.09-7.81,0-2-.1-2.23.89-2.2,2.49s.08,2.67,2.12,2.56c2.35-.13,4.72,0,7.07,0,1.32,0,2,.26,2.07,1.82s-.46,2.25-2.11,2.17c-2.11-.1-4.24.13-6.33-.07-2.42-.23-2.85.83-2.86,3s.46,3.15,2.86,2.94,5,.05,7.44-.08c1.85-.09,2.68.36,2.63,2.43,0,1.91-.87,2.24-2.5,2.21-4.21-.07-8.44-.13-12.65,0-2.26.08-2.73-.89-2.65-2.86C802.37,521.29,802.28,518.31,802.28,515.34Z" transform="translate(-58.67 -484.32)"/><path class="cls-1" d="M905,547.94c0-9.7,6.91-14.86,15.64-12a7.5,7.5,0,0,1,5,4.59c.34,1,1.56,2.69,0,3.19-1.33.42-3.44,1.24-4.49-1.07-1.15-2.55-3.33-3.18-5.88-2.79-2.8.43-4.3,2.3-4.94,4.92-1.38,5.7,1.1,10.41,5.53,10.62,2.15.1,3.92-.5,5.06-2.43.49-.83.7-1.93,2-1.85,1.08.06,2.39-.47,3.17.49s0,1.94-.36,2.81c-1.25,3.47-5,5.59-9.67,5.6-5.1,0-8.72-2.27-10.21-6.54A13.12,13.12,0,0,1,905,547.94Z" transform="translate(-58.67 -484.32)"/><path class="cls-1" d="M821.54,526.78c2.56-7.24,5.11-14.32,7.56-21.43.77-2.22,2.53-1.44,4-1.62,1.74-.22,2.67.46,3.27,2.19,2.09,6.08,4.4,12.09,6.49,18.18.28.83,1.69,2.33.11,2.76-1.39.39-3.42,1.12-4.63-.9-.73-1.19-.3-3.32-2.24-3.5a64.1,64.1,0,0,0-7.07,0c-1,0-1.22.91-1.32,1.57C827.12,527.87,824.49,527.27,821.54,526.78Z" transform="translate(-58.67 -484.32)"/><path class="cls-1" d="M960.86,526.72c2.55-7.18,5.11-14.27,7.57-21.38.78-2.24,2.56-1.4,4-1.61,1.77-.26,2.67.54,3.24,2.18,2.12,6.08,4.36,12.12,6.46,18.2.3.87,1.58,2.33.09,2.75s-3.47,1.1-4.66-1c-.68-1.2-.2-3.29-2.18-3.46a66.69,66.69,0,0,0-7.07,0,1.34,1.34,0,0,0-1.23,1.22C966.63,527.68,964,527.44,960.86,526.72Z" transform="translate(-58.67 -484.32)"/><path class="cls-1" d="M976.51,579.53c.4-3.15-1.67-8.07.85-10.45,2.29-2.16,7.12-.47,10.83-.62,1.24-.05,2.48,0,3.73,0,1.57,0,1.75,1,1.75,2.24s-.51,1.81-1.77,1.8c-2.73,0-5.47.08-8.2,0-1.84,0-2.36.81-2.38,2.48s.68,2.48,2.43,2.43c2.24-.07,4.48,0,6.71,0,1.47,0,1.91.72,1.93,2.07s-.52,2-2,2c-1.86-.05-3.74.12-5.59,0-2.44-.2-3.57.44-3.59,3.21,0,3,1.67,2.73,3.59,2.7,2.24-.05,4.48,0,6.72,0,1.64-.06,2.5.37,2.5,2.26s-.88,2.27-2.52,2.24c-4.22-.06-8.45-.08-12.68,0-1.76,0-2.43-.57-2.37-2.35C976.59,586.38,976.51,583.27,976.51,579.53Z" transform="translate(-58.67 -484.32)"/><path class="cls-1" d="M1020.4,536c2.47-.57,3.51.37,4.24,2.56,2,6,4.29,11.87,6.34,17.84.28.81,1.68,2.29,0,2.7-1.44.35-3.47,1.12-4.54-1.14-.55-1.15-.3-3.08-2-3.22a41,41,0,0,0-7.43.1c-1.07.1-1.19,1.54-1.36,2.43-.32,1.74-1.24,2.1-2.87,2.11-2.47,0-3-.68-2-3.07,2.26-5.89,4.26-11.88,6.31-17.86C1017.58,536.66,1018.25,535.12,1020.4,536Z" transform="translate(-58.67 -484.32)"/><path class="cls-1" d="M1017.73,527.07c-8.6,0-8.6,0-8.6-8.76,0-4,.06-7.94,0-11.91,0-1.78.32-2.77,2.43-2.7,4.09.13,8.2.09,12.3,0,1.58,0,2.2.5,2.17,2.14s-.74,1.87-2.07,1.85c-2.61-.05-5.22.09-7.83,0-1.94-.1-2.26.84-2.22,2.47s0,2.69,2.11,2.58c2.35-.13,4.72,0,7.08,0,1.31,0,2.06.26,2.07,1.82s-.47,2.25-2.11,2.17c-2.11-.11-4.24.13-6.34-.07-2.46-.24-2.82.88-2.85,3s.52,3.13,2.89,2.92,5,0,7.45-.07c1.62-.05,2.47.23,2.49,2.18s-.74,2.57-2.62,2.46C1022,527,1019.84,527.07,1017.73,527.07Z" transform="translate(-58.67 -484.32)"/><path class="cls-1" d="M943.89,550.05c0,2.35-.09,4.7,0,7.05.08,1.77-.58,2.4-2.35,2.38s-2.8-.35-2.74-2.44c.1-4.2-.17-8.42.09-12.61.2-3.16-.58-4.66-4-4.09-1.67.28-3.21.2-3-2.34.11-1.6.6-2.15,2.19-2.12,4.95.06,9.91,0,14.86,0,1.42,0,2.11.49,2,1.92-.1,1,.45,2.35-1.3,2.56s-4.51-.89-5.22.58c-.93,1.93-.41,4.55-.5,6.88C943.87,548.56,943.89,549.3,943.89,550.05Z" transform="translate(-58.67 -484.32)"/><path class="cls-1" d="M832.88,549.63V545.9c0-5,0-5.13-5.09-5.47-1.76-.12-2-.87-2-2.3s.24-2.29,2-2.26q7.45.14,14.91,0c1.87,0,1.87,1,1.92,2.36.06,1.58-.48,2.45-2.1,2.12-4.36-.86-5.17,1.24-4.83,5.07s0,7.69.09,11.54c0,1.6-.21,2.58-2.18,2.52-1.72-.05-2.89-.26-2.78-2.41C833,554.6,832.88,552.11,832.88,549.63Z" transform="translate(-58.67 -484.32)"/><path class="cls-1" d="M1043.36,545.32c.13,3-.78,6.68.67,8.68,1.62,2.23,5.56.62,8.48.79,1.73.1,2.39.63,2.41,2.42s-.93,2.28-2.54,2.26c-3.86-.05-7.71-.07-11.57,0-1.73,0-2.43-.53-2.41-2.35q.12-9.5,0-19c0-1.85.68-2.3,2.4-2.28s2.85.22,2.71,2.38c-.15,2.35,0,4.72,0,7.08Z" transform="translate(-58.67 -484.32)"/><path class="cls-1" d="M875,517.43a39.84,39.84,0,0,1,0-4.09c.37-3.66,0-6.46-4.91-5.49-1.66.33-2-.81-2-2.28s.81-1.85,2.11-1.84c4.84,0,9.69,0,14.53,0,1.49,0,1.93.66,1.91,2s-.36,2.18-1.87,2.11a16.49,16.49,0,0,1-1.86,0c-2.74-.38-3.34,1-3.24,3.43.17,4.21.05,8.44.05,12.65,0,1.59.38,3.18-2.26,3.19-2.47,0-2.52-1.23-2.46-3C875.05,521.9,875,519.67,875,517.43Z" transform="translate(-58.67 -484.32)"/><path class="cls-1" d="M902.09,580.22c0,3-.11,5.94,0,8.89.11,2.11-.62,2.78-2.73,2.77s-2.45-1-2.43-2.72q.1-9.09,0-18.17c0-2.06.68-2.85,2.79-2.85s2.4,1.1,2.36,2.81C902,574,902.09,577.13,902.09,580.22Z" transform="translate(-58.67 -484.32)"/><path class="cls-1" d="M1045.23,506.2c2-.22,2.63.23,2.59,1.55a29.56,29.56,0,0,1,0,3c-.39,2.84.81,3.88,3.57,3.46a16.72,16.72,0,0,1,2.24,0c1.23,0,2.19.07,2.12,1.74-.06,1.5-1,1.47-2,1.47a10.49,10.49,0,0,1-1.86,0c-3.38-.6-4.54.89-4,4.1a17.49,17.49,0,0,1,0,2.61c0,1.1-.62,1.48-1.65,1.49s-1.73-.2-1.72-1.39c0-.37,0-.74,0-1.12-.24-5.24-.24-5.26-5.72-5.67-1.13-.08-2.29.08-2.25-1.66s1.27-1.5,2.35-1.54a8.89,8.89,0,0,1,1.86,0c3.24.56,4-.93,3.85-3.93C1044.41,508.88,1043.26,506.68,1045.23,506.2Z" transform="translate(-58.67 -484.32)"/><path class="cls-2" d="M354.8,554c0,13.5-7.71,21-20.52,19.94-4.66-.38-8.1-3.24-9-7.52a9.84,9.84,0,0,1,5.1-10.94c3.21-1.75,6.74-2.41,10.25-3.12A50.83,50.83,0,0,0,351,549.48c3-1.28,4.39-.87,3.85,2.67A12.8,12.8,0,0,0,354.8,554Z" transform="translate(-58.67 -484.32)"/><path class="cls-2" d="M678,547A32.07,32.07,0,0,1,680.4,533c3.19-7.43,8.9-11,17-10.86,7.66.11,13.09,3.6,15.92,10.64a37.36,37.36,0,0,1,0,28.64,16.86,16.86,0,0,1-18.1,10.82c-8.53-1-14.5-6.59-16.32-15.45A38.88,38.88,0,0,1,678,547Z" transform="translate(-58.67 -484.32)"/><path class="cls-2" d="M578,546.76a35.2,35.2,0,0,1-1.7,12.7c-2.81,8.44-9,13-17.52,12.86-8.24-.11-14.48-4.73-17-13.05a40.53,40.53,0,0,1-.21-23.47c2.63-9,9.19-14,17.61-13.63,9.84.42,15.87,5.61,18,15.59A31,31,0,0,1,578,546.76Z" transform="translate(-58.67 -484.32)"/><path class="cls-2" d="M926.43,522.87c-4.81.81-7.42-1-8-5.62-.73-5.48,1.43-9.38,5.44-9.75,2.52-.24,4.67.43,6,2.77a10.11,10.11,0,0,1,.77,8.22c-.19.66-.64,1.18-1.29.52-1.2-1.24-2-1.09-3.35.09C924,520.8,926.84,521.58,926.43,522.87Z" transform="translate(-58.67 -484.32)"/><path class="cls-2" d="M993.45,540.27c2.47,0,5.22-.4,5.3,2.79.08,3.43-2.81,3.08-5.17,3.18-2.08.08-3.75.28-3.78-2.88S991.35,540,993.45,540.27Z" transform="translate(-58.67 -484.32)"/><path class="cls-3" d="M859.37,546.29c-1.62.24-3.06,0-3-3.19s1.63-3,3.69-2.86c2.26.12,5.24-.62,5.29,2.89S862.43,546.12,859.37,546.29Z" transform="translate(-58.67 -484.32)"/><path class="cls-2" d="M1014.66,572.54c2.62-.11,5,.16,5,2.93,0,3.77-3.25,2.76-5.56,3-2.62.32-3.29-.73-3.34-3.29C1010.67,571.5,1013.22,572.78,1014.66,572.54Z" transform="translate(-58.67 -484.32)"/><path class="cls-4" d="M855.21,513.65c-2.17.14-4,.43-4-3s1.84-3.07,4-3c2.35.06,5.19-.23,5.23,3.1C860.44,514.36,857.4,513.52,855.21,513.65Z" transform="translate(-58.67 -484.32)"/><path class="cls-2" d="M832.54,509.09c.71,1.76,1.09,2.6,1.38,3.48.57,1.71,1.08,3.44,1.65,5.26a12.06,12.06,0,0,1-5.85,0Z" transform="translate(-58.67 -484.32)"/><path class="cls-2" d="M971.68,509.39c1.43,1.84,1.5,3.78,2.29,5.41,1.31,2.71.59,3.65-2.43,3.4-1.86-.15-2.81-.28-1.87-2.48A64.38,64.38,0,0,0,971.68,509.39Z" transform="translate(-58.67 -484.32)"/><path class="cls-2" d="M1020.75,541.13c.93,2.66,1.61,4.24,2,5.88.26,1.13,1.61,2.61.48,3.33s-2.84.33-4.3.34c-1.08,0-1-.69-.78-1.51C1018.92,546.88,1019.65,544.57,1020.75,541.13Z" transform="translate(-58.67 -484.32)"/></svg>