<svg id="Layer_1" data-name="Layer 1" xmlns="http://www.w3.org/2000/svg" viewBox="0 0 569.9 170.2"><defs><style>.cls-1,.cls-10,.cls-100,.cls-101,.cls-102,.cls-103,.cls-11,.cls-12,.cls-13,.cls-14,.cls-15,.cls-16,.cls-17,.cls-18,.cls-19,.cls-20,.cls-21,.cls-22,.cls-23,.cls-24,.cls-25,.cls-26,.cls-27,.cls-28,.cls-29,.cls-3,.cls-30,.cls-31,.cls-32,.cls-33,.cls-34,.cls-35,.cls-36,.cls-37,.cls-38,.cls-39,.cls-4,.cls-40,.cls-41,.cls-42,.cls-43,.cls-44,.cls-45,.cls-46,.cls-47,.cls-48,.cls-49,.cls-5,.cls-50,.cls-51,.cls-52,.cls-53,.cls-54,.cls-55,.cls-56,.cls-57,.cls-58,.cls-59,.cls-6,.cls-60,.cls-61,.cls-62,.cls-63,.cls-64,.cls-65,.cls-66,.cls-67,.cls-68,.cls-69,.cls-7,.cls-70,.cls-71,.cls-72,.cls-73,.cls-74,.cls-75,.cls-76,.cls-77,.cls-78,.cls-79,.cls-8,.cls-80,.cls-81,.cls-82,.cls-83,.cls-84,.cls-85,.cls-86,.cls-87,.cls-88,.cls-89,.cls-9,.cls-90,.cls-91,.cls-92,.cls-93,.cls-94,.cls-95,.cls-96,.cls-97,.cls-98,.cls-99{fill:#9aa1ad;}.cls-1,.cls-10,.cls-100,.cls-101,.cls-102,.cls-103,.cls-11,.cls-12,.cls-13,.cls-14,.cls-15,.cls-16,.cls-17,.cls-18,.cls-19,.cls-2,.cls-20,.cls-21,.cls-22,.cls-23,.cls-24,.cls-25,.cls-26,.cls-27,.cls-28,.cls-29,.cls-3,.cls-30,.cls-31,.cls-32,.cls-33,.cls-34,.cls-35,.cls-36,.cls-37,.cls-38,.cls-39,.cls-4,.cls-40,.cls-41,.cls-42,.cls-43,.cls-44,.cls-45,.cls-46,.cls-47,.cls-48,.cls-49,.cls-5,.cls-50,.cls-51,.cls-52,.cls-53,.cls-54,.cls-55,.cls-56,.cls-57,.cls-58,.cls-59,.cls-6,.cls-60,.cls-61,.cls-62,.cls-63,.cls-64,.cls-65,.cls-66,.cls-67,.cls-68,.cls-69,.cls-7,.cls-70,.cls-71,.cls-72,.cls-73,.cls-74,.cls-75,.cls-76,.cls-77,.cls-78,.cls-79,.cls-8,.cls-80,.cls-81,.cls-82,.cls-83,.cls-84,.cls-85,.cls-86,.cls-87,.cls-88,.cls-89,.cls-9,.cls-90,.cls-91,.cls-92,.cls-93,.cls-94,.cls-95,.cls-96,.cls-97,.cls-98,.cls-99{fill-rule:evenodd;}.cls-2{fill:#a2a2a2;}.cls-10,.cls-100,.cls-101,.cls-102,.cls-103,.cls-11,.cls-12,.cls-13,.cls-14,.cls-15,.cls-16,.cls-17,.cls-18,.cls-19,.cls-20,.cls-21,.cls-22,.cls-23,.cls-24,.cls-25,.cls-26,.cls-27,.cls-28,.cls-29,.cls-3,.cls-30,.cls-31,.cls-32,.cls-33,.cls-34,.cls-35,.cls-36,.cls-37,.cls-38,.cls-39,.cls-4,.cls-40,.cls-41,.cls-42,.cls-43,.cls-44,.cls-45,.cls-46,.cls-47,.cls-48,.cls-49,.cls-5,.cls-50,.cls-51,.cls-52,.cls-53,.cls-54,.cls-55,.cls-56,.cls-57,.cls-58,.cls-59,.cls-6,.cls-60,.cls-61,.cls-62,.cls-63,.cls-64,.cls-65,.cls-66,.cls-67,.cls-68,.cls-69,.cls-7,.cls-70,.cls-71,.cls-72,.cls-73,.cls-74,.cls-75,.cls-76,.cls-77,.cls-78,.cls-79,.cls-8,.cls-80,.cls-81,.cls-82,.cls-83,.cls-84,.cls-85,.cls-86,.cls-87,.cls-88,.cls-89,.cls-9,.cls-90,.cls-91,.cls-92,.cls-93,.cls-94,.cls-95,.cls-96,.cls-97,.cls-98,.cls-99{stroke:#a2a2a2;stroke-linecap:round;}.cls-3{stroke-width:0.74px;}.cls-4{stroke-width:0.58px;}.cls-5{stroke-width:0.64px;}.cls-6{stroke-width:0.51px;}.cls-7{stroke-width:0.63px;}.cls-8{stroke-width:0.55px;}.cls-9{stroke-width:0.54px;}.cls-10{stroke-width:0.89px;}.cls-11{stroke-width:0.44px;}.cls-12{stroke-width:0.52px;}.cls-13{stroke-width:0.58px;}.cls-14{stroke-width:0.49px;}.cls-15{stroke-width:0.62px;}.cls-16{stroke-width:0.47px;}.cls-17{stroke-width:0.66px;}.cls-18{stroke-width:0.62px;}.cls-19{stroke-width:0.55px;}.cls-20{stroke-width:0.65px;}.cls-21{stroke-width:0.65px;}.cls-22{stroke-width:0.61px;}.cls-23{stroke-width:0.64px;}.cls-24{stroke-width:0.66px;}.cls-25{stroke-width:0.66px;}.cls-26{stroke-width:0.73px;}.cls-27{stroke-width:0.87px;}.cls-28{stroke-width:1.05px;}.cls-29{stroke-width:0.56px;}.cls-30{stroke-width:0.97px;}.cls-31{stroke-width:0.66px;}.cls-32{stroke-width:0.69px;}.cls-33{stroke-width:0.73px;}.cls-34{stroke-width:0.55px;}.cls-35{stroke-width:0.55px;}.cls-36{stroke-width:0.52px;}.cls-37{stroke-width:0.66px;}.cls-38{stroke-width:0.6px;}.cls-39{stroke-width:0.67px;}.cls-40{stroke-width:0.85px;}.cls-41{stroke-width:0.51px;}.cls-42{stroke-width:0.53px;}.cls-43{stroke-width:0.52px;}.cls-44{stroke-width:0.49px;}.cls-45{stroke-width:0.53px;}.cls-46{stroke-width:0.59px;}.cls-47{stroke-width:0.87px;}.cls-48{stroke-width:0.68px;}.cls-49{stroke-width:0.71px;}.cls-50{stroke-width:0.46px;}.cls-51{stroke-width:0.9px;}.cls-52{stroke-width:0.84px;}.cls-53{stroke-width:0.76px;}.cls-54{stroke-width:0.53px;}.cls-55{stroke-width:0.56px;}.cls-56{stroke-width:0.44px;}.cls-57{stroke-width:0.46px;}.cls-58{stroke-width:0.5px;}.cls-59{stroke-width:0.45px;}.cls-60{stroke-width:0.51px;}.cls-61{stroke-width:0.51px;}.cls-62{stroke-width:0.57px;}.cls-63{stroke-width:0.53px;}.cls-64{stroke-width:0.55px;}.cls-65{stroke-width:0.5px;}.cls-66{stroke-width:0.62px;}.cls-67{stroke-width:0.59px;}.cls-68{stroke-width:0.58px;}.cls-69{stroke-width:0.71px;}.cls-70{stroke-width:0.78px;}.cls-71{stroke-width:0.77px;}.cls-72{stroke-width:0.63px;}.cls-73{stroke-width:0.62px;}.cls-74{stroke-width:0.61px;}.cls-75{stroke-width:0.62px;}.cls-76{stroke-width:0.67px;}.cls-77{stroke-width:0.57px;}.cls-78{stroke-width:0.64px;}.cls-79{stroke-width:0.58px;}.cls-80{stroke-width:0.47px;}.cls-81{stroke-width:0.67px;}.cls-82{stroke-width:0.58px;}.cls-83{stroke-width:0.56px;}.cls-84{stroke-width:0.6px;}.cls-85{stroke-width:0.75px;}.cls-86{stroke-width:1.09px;}.cls-87{stroke-width:0.68px;}.cls-88{stroke-width:0.62px;}.cls-89{stroke-width:0.58px;}.cls-90{stroke-width:0.85px;}.cls-91{stroke-width:0.67px;}.cls-92{stroke-width:0.66px;}.cls-93{stroke-width:0.7px;}.cls-94{stroke-width:0.68px;}.cls-95{stroke-width:0.67px;}.cls-96{stroke-width:0.74px;}.cls-97{stroke-width:0.6px;}.cls-98{stroke-width:0.61px;}.cls-99{stroke-width:0.47px;}.cls-100{stroke-width:0.51px;}.cls-101{stroke-width:0.46px;}.cls-102{stroke-width:0.58px;}.cls-103{stroke-width:0.27px;}</style></defs><path class="cls-1" d="M21.36,394.68c-.85-16.26,4-28.67,9.84-38.88a90.37,90.37,0,0,1,16.56-21.36A85.33,85.33,0,0,1,102,311.88c20.91-1,36.42,5.32,49.2,13.44a85.11,85.11,0,0,1,30,32.4c7.1,13.81,11.61,33.14,8.64,51.84a83.45,83.45,0,0,1-19.68,42.72A85.32,85.32,0,0,1,133,477.72c-16.38,5.58-37,5.68-54,.24A85,85,0,0,1,29,434.28a78.06,78.06,0,0,1-4.56-11,60.87,60.87,0,0,1-3.12-24l.44.12.28-.36c.84,20.19,7.25,34.5,16.08,46.8A81.3,81.3,0,0,0,73,473.88c15.51,6.54,36.32,8.52,53.76,3.84a84.81,84.81,0,0,0,39.36-23.52c14.71-15.27,26.59-39.7,21.84-70.56-2.73-17.73-10.73-31.08-20.4-42.48a74.66,74.66,0,0,0-17-14.4c-12.87-8.09-30.14-14.25-49.2-13-24.82,1.68-41.78,11.54-55.2,25s-22.51,31.12-24,56.16l-.28-.36Z" transform="translate(-21.24 -311.78)"/><path class="cls-1" d="M113.28,316.68v1.68c-.72.48-2.26.14-3.36.24.14,2.62-.42,4.54-.24,7.2a3.28,3.28,0,0,1-2.64,0c-.19-2.67.35-4.61.24-7.2-.62-.66-2.73.17-3.36-.48-.18-.9.29-1.15.24-1.92C106.79,316.77,110.69,316.07,113.28,316.68Z" transform="translate(-21.24 -311.78)"/><path class="cls-1" d="M105.12,325.8a8.45,8.45,0,0,0-2.4.24c-.45-.59-.75-1.33-1.2-1.92a10.43,10.43,0,0,1-3.36.24c-.73.23-.52,1.4-1,1.92-1.1-.14-1.49.43-2.64.24a97.61,97.61,0,0,1,3.12-9.84c3-1.13,4,1.79,5.28,4.08A20.39,20.39,0,0,1,105.12,325.8Zm-6.72-3.36h2.16a4.5,4.5,0,0,0-1.44-2.88C99.1,320.74,98.42,321.26,98.4,322.44Z" transform="translate(-21.24 -311.78)"/><path class="cls-1" d="M115.44,316.92c2.15.49,4.78.5,6.72,1.2.19.83-.36.92-.24,1.68-1.7.18-2.6-.44-4.08-.48a2,2,0,0,0-.48,1.44c1,.64,3,.33,4.08,1a8.25,8.25,0,0,1-.48,1.68c-1.52.08-2.43-.45-3.84-.48-.54.1,0,1.27-.48,1.44.77,1.07,3.17.52,4.32,1.2v1.68c-1.88.12-4.79-.59-7-1A38.06,38.06,0,0,1,115.44,316.92Z" transform="translate(-21.24 -311.78)"/><path class="cls-1" d="M94.56,317.16c-.19.83.36.92.24,1.68-.82.46-2.15.41-3.12.72a52.8,52.8,0,0,0,1.44,7c-.35.85-1.69.71-2.64,1-.4-2.56-1.07-4.85-1.44-7.44-1,.29-2.09.47-3.12.72a6,6,0,0,1-.48-1.92A68.41,68.41,0,0,1,94.56,317.16Z" transform="translate(-21.24 -311.78)"/><path class="cls-1" d="M130.56,321c.19.83-.36.92-.24,1.68-1.75,0-2.45-2.13-4.32-1.2,1,1.84,4.63,3.14,3.36,6-.25.56-1.15.73-1.68,1.44a6.88,6.88,0,0,1-5.76-1.92c-.07-.95.55-1.21.48-2.16,1.37.51,2.33,2.57,4.32,1.68-.71-2.16-3.39-2.14-3.6-4.32C122.74,318.16,128.77,318.39,130.56,321Z" transform="translate(-21.24 -311.78)"/><path class="cls-1" d="M83.52,319.8a3.05,3.05,0,0,1,.72,2.16c-1.51,0-3.24-.2-3.84.72.89,1.38,2.75.61,3.84,1A3.2,3.2,0,0,1,86.16,327c-.3,2.12-3.36,3.39-6.48,2.64,0-.76-.54-1.06-.48-1.92,1-.2,3.61.8,4.32-.72-.92-1.85-3.25-.55-4.56-1.2C75.51,324.08,78.72,318.92,83.52,319.8Z" transform="translate(-21.24 -311.78)"/><path class="cls-1" d="M140.88,324.36c.17,3.76-.41,6.79-.24,10.56-.84-.28-1.38-.86-2.4-1-.08-.86-.37-1.16,0-1.92-.81-1-2.29-1.23-3.36-1.92-.93,0-.95,1-1.68,1.2-.92-.2-1.53-.71-2.4-1,2.26-2.62,5.18-4.58,7.44-7.2A15.15,15.15,0,0,0,140.88,324.36Zm-4.56,4.32,1.92,1c-.17-1.06.73-2.3,0-3.12C137.75,327.38,136.81,327.81,136.32,328.68Z" transform="translate(-21.24 -311.78)"/><path class="cls-1" d="M67.44,336.6c-1.38-2.86-3.09-5.39-4.32-8.4,2.3-1.08,5-3.33,7.92-2.64,2,.45,3.61,2.93,3.36,5.28C74,334.17,70.26,335.18,67.44,336.6Zm-1-7.92c.45,1.87,1.63,3,2.16,4.8C74.3,333.23,70.62,324.87,66.48,328.68Z" transform="translate(-21.24 -311.78)"/><path class="cls-1" d="M152.88,332.28c0,.91-.75,1.17-1,1.92-1.46-1.14-3.14-3.84-5.52-3.12a2.72,2.72,0,0,0,1,5.28c1-.74-.83-.75-.48-1.68.49-.07.48-.64.72-1a6.24,6.24,0,0,1,3.36,1.92c-.35,1.41-1.42,2.1-1.92,3.36-5.11.38-9-4.86-6.24-8.64C145.28,327,151,328.92,152.88,332.28Z" transform="translate(-21.24 -311.78)"/><path class="cls-1" d="M99.12,329.4c22.68-1.77,39.72,6.28,51.36,16.56a68.58,68.58,0,0,1,23,44.88A68.56,68.56,0,0,1,157,441.72a67.62,67.62,0,0,1-44.64,23c-22,2.37-39.62-6.63-51.12-16.32a67,67,0,0,1-15.36-18.72,62.59,62.59,0,0,1-7.92-25.92C36.13,380.85,43.7,364.29,54,352.44a67.72,67.72,0,0,1,45.12-23ZM66.48,343.32A65.28,65.28,0,0,0,54,355.56a64.16,64.16,0,0,0-14.64,43c.55,20.56,8.69,35.32,20.16,46.08C70.72,455.11,86.1,464,107,463.32c19.49-.61,35.48-8.75,46.08-20.16s19.15-25.84,18.72-47.52c-.41-20.85-9.36-35.29-20.16-46.08a64.5,64.5,0,0,0-47.52-18.72A68.54,68.54,0,0,0,66.48,343.32Z" transform="translate(-21.24 -311.78)"/><path class="cls-1" d="M61.92,331.08c-.59,1.41-2.36,1.64-3.12,2.88-.18.74.66.46.48,1.2,1.55-.37,2.06-1.78,3.6-2.16.8,0,.64,1,1.2,1.2-.67,1.25-2.33,1.51-3.12,2.64,0,.73.51.93.72,1.44,1.52-.48,2.22-1.78,3.6-2.4.84,0,.76.84,1.2,1.2-1.24,2-3.62,2.78-5.28,4.32a33.42,33.42,0,0,1-5.76-7.68,53.1,53.1,0,0,0,5-3.84C61.55,329.69,61.45,330.67,61.92,331.08Z" transform="translate(-21.24 -311.78)"/><path class="cls-1" d="M160.8,338.28c0,.7-.55.89-1,1.2-1.73-.19-2.14-1.7-3.36-2.4-.82-.1-.72.72-1.2,1,.89.95,1.93,1.75,2.88,2.64-.71,3.34-2.85-.25-4.32-1a11.21,11.21,0,0,0-1,1.2c.64,1.36,2.08,1.92,3.12,2.88.07.95-1,.73-1,1.68a34.77,34.77,0,0,1-5.52-4.56c1.8-2.6,4-4.76,6-7.2A37.19,37.19,0,0,1,160.8,338.28Z" transform="translate(-21.24 -311.78)"/><path class="cls-1" d="M55,336.36a4.37,4.37,0,0,1-2.16,2.16c1.13,2.39,3.49,3.55,4.8,5.76A3.65,3.65,0,0,1,55.68,346c-1.46-1.9-3.53-3.19-4.8-5.28-1,.41-2,2-2.64,1.92-.9.18-.52-.92-1.2-1,1.75-2.57,4.43-4.21,6.48-6.48C54.48,335.08,54.17,336.27,55,336.36Z" transform="translate(-21.24 -311.78)"/><path class="cls-1" d="M163.44,348.6c1.51-.81,2.46-2.18,3.84-3.12a2.38,2.38,0,0,1,1.68,1.68c-2,2.36-4.56,4.08-6.72,6.24-3.05-.95-.66-5.73-.72-8.64a23.72,23.72,0,0,0-3.84,3.36c-1-.23-1.35-1.05-1.92-1.68a54.38,54.38,0,0,1,7-6.24C165.45,341.16,163.6,346.19,163.44,348.6Z" transform="translate(-21.24 -311.78)"/><path class="cls-1" d="M362.4,347.16c-.16,5.2.32,11-.24,15.84-6.65-2.34-14.5-6.51-23-7.2-5.53-.45-13.77.78-14.4,5.76-.71,5.65,6.64,7.78,10.56,9.36,8.87,3.57,18.47,6.3,24.48,12.48,4.39,4.52,6.95,10.21,6.24,18.48-1.77,20.61-27.45,26.41-48.24,20.16A60.48,60.48,0,0,1,305,416.28V399c1-.26,2.13.7,2.88,1.2,6.85,4.53,15.66,10.12,28.32,8.88,4.36-.43,8.64-2.81,8.64-7.2,0-4-3.54-5.81-6.24-7.2-8.9-4.6-19.91-6.46-27.12-12.48-5.39-4.51-9-11-7.92-21.36,1.2-11.68,13.31-19.16,26.88-20.16C343.06,339.75,353.1,343.09,362.4,347.16Z" transform="translate(-21.24 -311.78)"/><path class="cls-1" d="M210.24,341.64c6.64.16,13.92-.32,20.16.24V382.2c0,4.44-.3,8.78.72,12.48,4.33,15.62,30.51,16,37.44,3.12,3.51-6.53,2.16-20.18,2.16-30.24,0-8.94-.2-17.62.24-25.92h20.16c.44,11.51.24,23.71.24,35.52s.2,22.86-4.56,31c-7.48,12.72-23.76,17.46-42.48,16.08-16.74-1.23-30.2-10.45-33.6-25.44a53.72,53.72,0,0,1-1-8.16c-.93-15,.7-32.39,0-48.24A.66.66,0,0,1,210.24,341.64Z" transform="translate(-21.24 -311.78)"/><path class="cls-1" d="M403,341.64c7.52.16,15.68-.32,22.8.24,1.42,1.31,1.63,3.4,2.4,5,11.6,24.71,22.6,51,34.08,76.32H440.16c-2.37-5.23-4.42-10.78-6.72-16.08H397.68a13.42,13.42,0,0,0-1.92,3.84c-1.52,3.86-2.82,8.3-4.56,12.24H369.6c10.71-27.21,21.7-54.14,32.64-81.12A1.82,1.82,0,0,1,403,341.64Zm0,50.88c6.13,0,15,0,21.6,0,.9,0,2,.38,2.64-.24-4.33-10-8.22-20.42-12.72-30.24C410.55,372.11,406.67,382.23,403,392.52Z" transform="translate(-21.24 -311.78)"/><path class="cls-1" d="M471.36,341.64c6.56.16,13.76-.32,19.92.24.4,26.56.4,54.8,0,81.36h-20.4V342.36A.66.66,0,0,1,471.36,341.64Z" transform="translate(-21.24 -311.78)"/><path class="cls-1" d="M509.28,341.64c17.17.65,34.31-1.45,48,1.44,13.15,2.77,23.14,9.79,28.32,20.88,4.08,8.74,5.24,21.37,2.64,31-5,18.31-21,27.87-43.68,28.32-11.33.22-23.83-.17-36,0V342.12A1.82,1.82,0,0,1,509.28,341.64Zm19.92,15.84v50.64c14.42.73,26-.29,32.64-7a22.7,22.7,0,0,0,3.84-5.28c4.09-8.21,3.84-21.14-1-28.56-6.18-9.56-18.58-11.38-35-10.32C529.68,356.44,529,357.09,529.2,357.48Z" transform="translate(-21.24 -311.78)"/><path class="cls-1" d="M52.8,349.08c-.45.83-.91,1.65-1.92,1.92-2.21-2-4.5-4-6.72-6,.16-.88.91-1.17,1.2-1.92C48.34,344.58,50.3,347.1,52.8,349.08Z" transform="translate(-21.24 -311.78)"/><path class="cls-1" d="M49.92,352.68c-1.08,2.2-4.91,1.65-7.92,1.92,0,1.45,2.77,2.16,3.84,3.36-.18.94-.94,1.3-1.2,2.16-2.87-1.53-5.12-3.68-7.92-5.28.26-.86,1-1.22,1.2-2.16a55.09,55.09,0,0,0,7-.72c-1.12-1.12-2.67-1.81-3.84-2.88-.08-1.12.74-1.34,1-2.16C44.91,348.57,47.85,350.19,49.92,352.68Z" transform="translate(-21.24 -311.78)"/><path class="cls-2" d="M67.44,350c19.13,0,38,.18,59.76,0,6.69-.06,11.9.08,17.52.24v22.56c-25.44.4-52.56.4-78,0V350.76A1.17,1.17,0,0,1,67.44,350Zm7.92,5.76c.5,4.08-.88,6.51.48,9.36,1.93,4,10.21,3.42,11.76,0,1.13-2.51.31-6.78.24-10.08H85.2c-1.11,2.6.84,6.7-.72,9.12a3.55,3.55,0,0,1-5.52,0c-1.31-2,0-5.67-.48-8.88C77.87,355.07,75.26,354.57,75.36,355.8Zm15.6.48c-1.23,1.53-.62,4.36,1,5.52s4.9.53,4.8,3.12a2.41,2.41,0,0,1-1.92,1c-1.71.1-3.59-2-4.32-1.2.54.26.09,1.51.24,2.16,4,2.28,10.81.73,9.12-4.08-.94-2.66-4.94-2.07-6.48-4.56,1.08-1.93,4.5-.53,6,0v-2.4C96.75,354.91,92.35,354.55,91,356.28Zm15.12-1.2c-1.76,4.16-3.56,8.28-5,12.72h3.12a4.26,4.26,0,0,1,1.2-2.64h5.28a11.18,11.18,0,0,1,1.2,2.64H115a99.53,99.53,0,0,0-5.52-12.72Zm10.8.24v12.24a4.41,4.41,0,0,0,3.12,0V355.32A4.41,4.41,0,0,0,116.88,355.32Zm17.28,10.56c2.68-2.79,1.61-8.46-1.68-10.08-2.31-1.14-5.27-.53-8.88-.72a.66.66,0,0,0-.48.72v12C127.71,367.56,131.69,368.45,134.16,365.88Z" transform="translate(-21.24 -311.78)"/><path class="cls-1" d="M173.28,358.44c-.77-2-1.16-4.45-3.12-4.8-2.36-.42-3.31,1.27-3.12,3.12s2.17,2.54,3.12,3.6c-1.94,3.15-5.83-1.56-5.76-4.8.13-5.76,7.37-5.31,9.6-1.92C175,355.21,175.65,358,173.28,358.44Z" transform="translate(-21.24 -311.78)"/><path class="cls-1" d="M31.2,365.64c0-1.05.65-1.43,1-2.16,1.45.47,8.42,4.91,7.92,0-.24-2.36-3.91-2.52-5.76-3.84-.17-1.21.66-1.42.72-2.4,2.23,1.36,6.73,1.7,7.44,4.56.77,3.13-1.58,6.77-4.32,7S33.64,366.4,31.2,365.64Z" transform="translate(-21.24 -311.78)"/><path class="cls-2" d="M126.24,365.64c-.54-2.26-.09-5.51-.24-8.16C134.5,355.05,134.4,367.74,126.24,365.64Z" transform="translate(-21.24 -311.78)"/><path class="cls-2" d="M107.52,358.44c1.36,1,1.6,3,2.4,4.56a6.61,6.61,0,0,1-3.84,0C106.25,361.17,107.26,360.18,107.52,358.44Z" transform="translate(-21.24 -311.78)"/><path class="cls-1" d="M176.16,358.44c2.18.94,1.3,4.1,0,5.28a23.7,23.7,0,0,0,3.36.72c.11,1.09,1,1.42,1,2.64-2.32.2-4.11-1.17-6-1-1.57.17-2.43,1.61-4.08,1.68-.34-.62-.4-1.52-1-1.92.84-1.28,2.28-1.09,3.36-1.92C174.5,362.66,174.92,360.3,176.16,358.44Z" transform="translate(-21.24 -311.78)"/><path class="cls-2" d="M29,378.12c1.08.52,1.38,1.82,2.4,2.4,1.11-.17,1.77-.79,2.88-1-.23,1.21-1.17,1.71-1.68,2.64.29,1.23,1.33,1.71,1.68,2.88a14.32,14.32,0,0,1-2.88-1c-1,.56-1.18,2-2.4,2.4v-2.88c-.55-.81-2.1-.62-2.88-1.2.66-.7,2-.69,2.88-1.2Z" transform="translate(-21.24 -311.78)"/><path class="cls-2" d="M181,378.36c1,0,.24,1.84.48,2.64.57.79,1.91.81,2.88,1.2-.47.89-1.95.77-2.88,1.2v3.12c-1.23-.29-1.16-1.88-2.16-2.4-.86.34-1.83.57-2.64,1-.49-.9,1-1.93,1.44-2.64-.51-.93-1.45-1.43-1.68-2.64,1.23-.11,1.58.66,2.64.72C180.12,380.24,180.39,379.15,181,378.36Z" transform="translate(-21.24 -311.78)"/><path class="cls-1" d="M98.4,384.36c-.73.09-.5-.78-.72-1.2C98.43,383.05,98.45,383.67,98.4,384.36Z" transform="translate(-21.24 -311.78)"/><path class="cls-1" d="M137.28,388c.13.53-.46.34-.48.72C136.2,388.58,136.79,387.75,137.28,388Z" transform="translate(-21.24 -311.78)"/><path class="cls-1" d="M139.44,388a.66.66,0,0,1-.72.48A.66.66,0,0,1,139.44,388Z" transform="translate(-21.24 -311.78)"/><path class="cls-1" d="M103,388.92c1.67-.07,2,1.16,3.12,1.68-.33,1.16-1.27.21-2.16.72-.1-.5.16-.64.24-1-.56.07-1.12.6-1-.48a1.31,1.31,0,0,1-1,.24c-.07-.39.23-.41.24-.72H103Z" transform="translate(-21.24 -311.78)"/><path class="cls-1" d="M126.48,389.4c.79.43-.28,1-.48,1.2C125.25,390.21,126.49,389.84,126.48,389.4Z" transform="translate(-21.24 -311.78)"/><path class="cls-1" d="M104.4,392.76c0-.9.94-.82,1.68-1C105.91,392.51,105.33,392.81,104.4,392.76Z" transform="translate(-21.24 -311.78)"/><path class="cls-1" d="M100.8,395.64v-.24c-.91.13-1.13.34-1.68-.24a6.69,6.69,0,0,1,2.4-1.2c-.85,1.28,1.55-.23.72,1.2.73.17.87-.25,1.44-.24-.07.56-.6,1.12.48,1a3.44,3.44,0,0,0-1,1.92h-.72l.12-.44-.36-.28c0-.23-.29-.19-.48-.24l.12-.36-.36-.12c0-.28,0-.43-.24-.48l-.12-.36Z" transform="translate(-21.24 -311.78)"/><path class="cls-1" d="M88.32,395.16c.08.88-.87.73-1.44,1C87.23,395.67,87.42,395.06,88.32,395.16Z" transform="translate(-21.24 -311.78)"/><path class="cls-1" d="M178.56,396.6V400c2.65-.17,4.55.41,7.2.24a3.28,3.28,0,0,1,0,2.64c-2.66.18-4.58-.38-7.2-.24-.54.66-.5,1.9-.48,3.12h-1.92c.25-3,0-6.53.72-9.12C177.33,396.12,178,396.48,178.56,396.6Z" transform="translate(-21.24 -311.78)"/><path class="cls-1" d="M96.24,396.6a2.26,2.26,0,0,1-1.44,1C94.81,396.77,95.48,396.64,96.24,396.6Z" transform="translate(-21.24 -311.78)"/><path class="cls-1" d="M34.56,398.76v2.4a80.23,80.23,0,0,1-9.36.24A8.45,8.45,0,0,1,25,399,69.64,69.64,0,0,1,34.56,398.76Z" transform="translate(-21.24 -311.78)"/><path class="cls-1" d="M128.64,401.4v.24h.72l-.12.36.12.36c-.33.55-1.67.09-2.4.24a1.71,1.71,0,0,1,1.44-1.68l-.12.36Z" transform="translate(-21.24 -311.78)"/><path class="cls-1" d="M137.76,399c.5.21-.08,1.34-.72,1.2C136.93,399.45,137.69,399.57,137.76,399Z" transform="translate(-21.24 -311.78)"/><path class="cls-1" d="M144.72,401.88c0,1.17-.94,1.46-2.16,1.44A2.62,2.62,0,0,1,144.72,401.88Z" transform="translate(-21.24 -311.78)"/><path class="cls-1" d="M34.56,402.6A21.22,21.22,0,0,1,35,405q-2.34,2.58-4.56,5.28c1.15.19,3.31-.69,5.28-.48a8.45,8.45,0,0,1,.24,2.4c-3,.34-6.66,1.32-9.36,1.2C25.56,410,29.71,408.53,31,406a18.34,18.34,0,0,0-4.8.72c-.84-.36-1-1.39-1-2.64C28.3,403.54,31.43,403.07,34.56,402.6Z" transform="translate(-21.24 -311.78)"/><path class="cls-1" d="M176.16,406.44c3.11.65,6.37,1.15,9.36,1.92-.38,3.78-4.71,3.61-6.72,5.76,1.56.6,3.79.53,5.28,1.2a10.63,10.63,0,0,1-.48,2.4,75.86,75.86,0,0,1-9.36-1.92c.2-3.8,4.29-3.71,6.48-5.52-1.1-1-3.43-.73-5-1.2A5.62,5.62,0,0,1,176.16,406.44Z" transform="translate(-21.24 -311.78)"/><path class="cls-1" d="M36.24,412.92c.85,2.86,2.25,6.34,2.4,9.12-.83-.19-.92.36-1.68.24-.33-1-.66-2.06-1-3.12-2.38.66-4.75,1.33-7,2.16a3.59,3.59,0,0,1-1-2.64c2.49-.47,4.5-1.42,7-1.92.08-1.44-.58-2.14-.72-3.36C35.08,413.36,35.38,412.86,36.24,412.92Z" transform="translate(-21.24 -311.78)"/><path class="cls-1" d="M175.68,417.72a19.84,19.84,0,0,1-1.44,3.84c.14.58.91.53,1.44.72a13.26,13.26,0,0,0,1.44-3.84c.76,0,1.06.54,1.92.48-.28,1.48-1,2.55-1.2,4.08.2.52,1.24.2,1.44.72.92-1.08,1.2-2.8,1.68-4.32.76,0,1.06.54,1.92.48-.5,2.46-1.54,4.37-2.16,6.72-3.38-.62-6-2-9.12-2.88A40.3,40.3,0,0,1,174,417,14.15,14.15,0,0,1,175.68,417.72Z" transform="translate(-21.24 -311.78)"/><path class="cls-1" d="M67.2,420.84h77.52v12.24c-25.44.4-52.56.4-78,0V421.56A.66.66,0,0,1,67.2,420.84Zm5.28,5c-.65.15-1.9-.3-2.16.24a3.21,3.21,0,0,1,1.92,1.68c0,.83-1,1.86-.48,2.4a4.25,4.25,0,0,1,2.16-1.44c.79.1,1.52,1.5,2.16,1a4.46,4.46,0,0,1-.72-2.16c.45-.75,1.47-.93,1.92-1.68h-2.4c-.76-.6-.43-2.3-1.2-2.88C73.56,424.24,73.36,425.4,72.48,425.88ZM86.88,430c-.41-.71-.57-1.67-1-2.4a5.2,5.2,0,0,0,1.92-1.68h-2.4c-.41-.87-.5-2.06-1-2.88,0,2.12-1.2,3.12-3.36,3.12A12.5,12.5,0,0,1,83,427.56c-.15.89-.57,1.51-.72,2.4,1-.16,1.29-1.11,2.4-1.2C85.4,429.05,86.35,430.31,86.88,430Zm28.8-4.32c-.36.6-2.07-.15-2.4.48a5.2,5.2,0,0,1,1.92,1.68,12.44,12.44,0,0,0-.72,2.16c1-.22,1.27-1.13,2.4-1.2.75.29,1,1,1.92,1.2-.13-.91-.75-1.33-.72-2.4.58-.62,1.39-1,1.92-1.68a7,7,0,0,1-2.64-.24,7.35,7.35,0,0,0-.72-2.4C116.21,423.93,116.21,425.05,115.68,425.64Zm21.12.24c-.73.15-2.07-.31-2.4.24a3.69,3.69,0,0,1,2.16,1.68c-.08.88-.59,1.33-.72,2.16,1-.16,1.29-1.11,2.4-1.2a19.61,19.61,0,0,1,1.92,1.44c.14-1.18-.62-1.46-.48-2.64.32-.8,1.4-.84,1.68-1.68a7,7,0,0,1-2.64-.24c-.19-.93-.28-2-1-2.4C137.65,424.33,137.58,425.46,136.8,425.88Zm-42.48-.24c-.43.61-2.24-.16-2.64.48a4.55,4.55,0,0,1,2.16,1.68c-.19.77-.71,1.21-.72,2.16,1-.1,1-1.22,2.16-1.2.86.26,1.22,1,2.16,1.2-.13-.91-.75-1.33-.72-2.4.58-.62,1.39-1,1.92-1.68h-2.4c-.58-.62-.41-2-1.2-2.4A9.78,9.78,0,0,1,94.32,425.64Zm8.16.48c.71.49,1.67.72,1.92,1.68,0,.7-.84,1.7-.24,2.16a2.65,2.65,0,0,1,1.92-1.2c.8.24,1.12,1,1.92,1.2.06-1-.63-1.29-.48-2.4.36-.85,1.36-1,1.92-1.68H107c-.65-.55-.53-1.87-1.2-2.4C105.7,425.34,104.42,426.06,102.48,426.12Zm23.52-.24c-.65.15-1.9-.3-2.16.24a3.21,3.21,0,0,1,1.92,1.68c.09.9-1.14,1.72-.48,2.4a4.25,4.25,0,0,1,2.16-1.44c.81.08,1.43,1.59,2.16,1-.55-.41-.57-1.35-.72-2.16.33-.87,1.52-.88,1.92-1.68h-2.4c-.65-.55-.53-1.87-1.2-2.4C126.68,424.16,127,425.64,126,425.88Z" transform="translate(-21.24 -311.78)"/><path class="cls-1" d="M42,428.52a1.78,1.78,0,0,1-1.92,1c-.55-1.29-1.16-2.52-1.68-3.84-.46.1-.6.52-1.2.48,0,1.76,1.23,2.29,1.2,4.08-.69.11-.75.85-1.68.72-.49-1.35-1.09-2.59-1.68-3.84-.6.2-.94.66-1.68.72.44,1.56,1.39,2.61,1.68,4.32-.39.33-1.24.2-1.44.72a20.39,20.39,0,0,1-2.88-6.72c3-1.09,5.55-2.61,8.64-3.6A57.23,57.23,0,0,0,42,428.52Z" transform="translate(-21.24 -311.78)"/><path class="cls-1" d="M170.88,425.16c3.46.7,5.35,3,8.64,3.84,0,1.33-.81,1.75-1.2,2.64-1.44-.88-3-1.63-4.56-2.4.25,1.19.91,2,1,3.36-.75.61-2.24.48-3.12,1a18.29,18.29,0,0,0,4.56,2.4,7.21,7.21,0,0,1-1.2,2.4c-2.77-1.47-5.78-2.7-8.4-4.32.37-2.27,2.84-2.44,5-2.88C171.28,428.94,169.38,427.19,170.88,425.16Z" transform="translate(-21.24 -311.78)"/><path class="cls-1" d="M41.52,437.88c-.87,1.37-1.72,2.76-2.64,4.08-3.29-1.73.64-4.36.24-6.48-1.19-.4-2.19,1.28-3.6,1.44-.21-.75-.8-1.12-1-1.92,2.11-2.13,5.33-3.15,7.68-5C44.84,431.42,47.39,439,41.52,437.88ZM40.8,434c-.06.7.54.74.48,1.44.64,0,1.37.09,1.68-.24C43,433.62,41.77,432.82,40.8,434Z" transform="translate(-21.24 -311.78)"/><path class="cls-1" d="M73.44,434.52v9.36c-3.52-1.76-5.71-4.85-6.72-9.12C68.5,434.22,71.26,434.66,73.44,434.52Z" transform="translate(-21.24 -311.78)"/><path class="cls-1" d="M85.68,434.52v14.4a22.78,22.78,0,0,1-9.12-3.12c.15-3.69-.31-8,.24-11.28Z" transform="translate(-21.24 -311.78)"/><path class="cls-1" d="M97.92,434.52c.56,5.12.08,11.28.24,16.8-2.37-.2-5.92-1.26-9.12-1.44a99.7,99.7,0,0,1,0-15.36Z" transform="translate(-21.24 -311.78)"/><path class="cls-1" d="M110.16,434.52v9.12c0,3,.69,6.7,0,8.88s-3.88,2.2-4.08,4.56c-1.75-1.29-3-3.13-4.8-4.32V434.52Z" transform="translate(-21.24 -311.78)"/><path class="cls-1" d="M122.64,434.52v15.12c-2.89.78-6.48.88-9.12,1.92v-17Z" transform="translate(-21.24 -311.78)"/><path class="cls-1" d="M134.64,434.52V446c-2.69,1.23-5.29,2.55-8.88,2.88v-14.4Z" transform="translate(-21.24 -311.78)"/><path class="cls-1" d="M138,434.52h6.48c-.22,4.11-3.15,7.57-6.48,9.36Z" transform="translate(-21.24 -311.78)"/><path class="cls-1" d="M168,442c.68,1,2,1.4,2.88,2.16a4.75,4.75,0,0,1-1.2,2.16c-3.05-1.35-5.24-3.56-7.92-5.28,1-.94,1.58-3.65,3.12-4.56C168.82,434.11,171.4,439.89,168,442ZM164.88,440c1,1.18,2.29.95,2.4-1C166.47,438.07,165,439,164.88,440Z" transform="translate(-21.24 -311.78)"/><path class="cls-1" d="M47.28,446c1.16-.2,2.62-2.18,4.08-2.88.84.28,1.06,1.18,1.68,1.68-2.15,2.25-4.85,4-7.2,6-2.9-1.38-.36-5.94-.24-8.64-1.07.37-2.79,2.16-4.08,3.12-1-.11-1.15-1.09-1.68-1.68,1.76-2.56,4.79-3.85,7-6C49.84,438.75,47.48,443.28,47.28,446Z" transform="translate(-21.24 -311.78)"/><path class="cls-1" d="M248.16,440.52c2.57-.38,6.4.24,8.4,1.68,4.49,3.22,5.33,12.46,0,16.32a12.12,12.12,0,0,1-13.68-.24c-6.57-5.11-3.49-16.62,4.8-17.76C247.84,440.5,248,440.54,248.16,440.52Zm2.16,17a7.38,7.38,0,0,0,6.48-10.08c-1-2.74-4.9-4.58-8.16-4.08C239.54,444.8,241.38,458,250.32,457.56Z" transform="translate(-21.24 -311.78)"/><path class="cls-1" d="M448.8,442v3.12c-2.29-.89-4.72-2.17-7.44-1.92a8.7,8.7,0,0,0-5.52,2.88c-4.46,6.25,2.05,13.31,9.6,11,1.29-.39,2.3-1.59,3.84-1.44a9,9,0,0,1-.24,3.12c-4.35,2.59-11.6,2-14.64-1-4.14-4-3.79-11.95.72-15.36C438.75,439.69,444.09,439.69,448.8,442Z" transform="translate(-21.24 -311.78)"/><path class="cls-1" d="M537.36,440.52a14.35,14.35,0,0,1,7.2,1c5.86,2.65,7.14,13.61.48,17.52a12.82,12.82,0,0,1-12.24-.24c-3.29-2.12-5.5-8.47-3.12-13.2A10.25,10.25,0,0,1,537.36,440.52ZM533,454.68c2.73,3.95,10.88,3.85,13-1.2a9.48,9.48,0,0,0,0-6.24c-1.14-2.76-4.34-4.45-8.16-3.84A7.27,7.27,0,0,0,533,454.68Z" transform="translate(-21.24 -311.78)"/><path class="cls-2" d="M220.32,440.52a3.78,3.78,0,0,1,0,2.88h-7.2c-.35,1.77,0,2.47-.24,4.8,2,.54,5,.09,7.44.24a3.78,3.78,0,0,1,0,2.88h-7.2c-.41,2.75.1,5.2-.24,8.64a3.87,3.87,0,0,1-2.88,0v-19.2C213,440.21,217,440.67,220.32,440.52Z" transform="translate(-21.24 -311.78)"/><path class="cls-1" d="M231.84,450.6c1.43,1.92,3.08,4,4.56,6.24a9.31,9.31,0,0,1,1.68,3.36H235c-2.77-2.83-3.2-8-8.4-8.4-.56,2.24-.08,5.52-.24,8.16a4.41,4.41,0,0,1-3.12,0v-19.2c3.82-.37,8.26-.73,10.32,1.68S235.19,449.53,231.84,450.6Zm-5.28-7.44c-.53,1.47-.1,3.9-.24,5.76a10,10,0,0,0,4.32-.48C232.84,445.74,230.54,442.47,226.56,443.16Z" transform="translate(-21.24 -311.78)"/><path class="cls-1" d="M272.4,448.2c1.18-.72,2.15-2.33,3.36-3.84,1.61-2,2.51-4.72,6-3.6V460a4.64,4.64,0,0,1-3.12,0V445.8c-2.35,1.89-3.7,4.78-6,6.72-2.48-1.76-3.81-4.67-6-6.72-.16,4.64.31,9.91-.24,14.16-.52.44-1.76.16-2.64.24a161.53,161.53,0,0,1,0-19.68c2.77-.56,4.18,2,5.52,3.6S271.35,447.25,272.4,448.2Z" transform="translate(-21.24 -311.78)"/><path class="cls-1" d="M308.16,440.76v2.4c-1.7.54-4.38.1-6.48.24-.72,5,.24,11.76-.48,16.8h-2.64V443.64c-1.78-.54-4.54-.1-6.72-.24-.27-.73-.52-2.5.24-2.88C297.36,440.68,303.28,440.2,308.16,440.76Z" transform="translate(-21.24 -311.78)"/><path class="cls-1" d="M313.44,440.52v8.4h10.32c.71-2.25-.22-6.14.48-8.4h2.64a161.53,161.53,0,0,1,0,19.68h-2.64c-.54-2.33-.09-5.67-.24-8.4H313.68c-.71,2.25.23,6.15-.48,8.4h-2.64c-.56-5.84-.08-12.72-.24-19C310.29,439.93,312.39,440.75,313.44,440.52Z" transform="translate(-21.24 -311.78)"/><path class="cls-1" d="M342.24,440.76a11.64,11.64,0,0,1,0,2.64h-7.92c-.56,1.36-.08,3.76-.24,5.52H342v2.64h-7.68c-.53,1.47-.1,3.9-.24,5.76,2.73.15,6.07-.31,8.4.24V460A55.45,55.45,0,0,1,331,460v-19.2A53.17,53.17,0,0,1,342.24,440.76Z" transform="translate(-21.24 -311.78)"/><path class="cls-1" d="M361.44,440.52c2.83,6.53,5.74,13,8.64,19.44-.65.47-2.1.14-3.12.24-.87-1.93-1.65-3.95-2.64-5.76h-7.68C355.49,456,355,458.27,354,460c-.58.46-1.93.15-2.88.24a17.11,17.11,0,0,1,1.68-4.8c2-4.74,4.27-10.14,6.48-14.88ZM357.6,451.8h5.52c-1.08-2-1.45-4.63-3.12-6C359.43,448,358.28,449.68,357.6,451.8Z" transform="translate(-21.24 -311.78)"/><path class="cls-1" d="M380.64,448.2c2.76-2,4.33-5.27,6.72-7.68H390c.06,6.5.12,13.44,0,19.68h-2.88a86.55,86.55,0,0,1,0-14.4c-.79-.24-1,.95-1.44,1.44a32,32,0,0,1-4.8,5.28c-2.39-1.93-3.8-4.84-6-7V460a4.41,4.41,0,0,1-3.12,0c.16-6.4-.32-13.44.24-19.44,3.34-.76,4.09,2.05,5.52,3.84C378.75,445.9,380.08,446.91,380.64,448.2Z" transform="translate(-21.24 -311.78)"/><path class="cls-1" d="M404.88,440.52c.46.58.15,1.93.24,2.88H397.2c-.53,1.31-.11,3.57-.24,5.28,2.18.54,5.35.09,7.92.24v2.64H397.2c-.53,1.47-.1,3.9-.24,5.76,2.73.15,6.07-.31,8.4.24V460a55.45,55.45,0,0,1-11.52,0v-19.2C397.05,440.21,401.27,440.67,404.88,440.52Z" transform="translate(-21.24 -311.78)"/><path class="cls-1" d="M416.64,450.84a40.52,40.52,0,0,1,6.48,9.36h-3.36c-2.59-2.93-3.1-7.94-8.16-8.4-1.08,1.8-.19,5.57-.48,8.16a4.41,4.41,0,0,1-3.12,0v-19.2c4.14-.53,9.43-.53,11,2.4C420.55,445.91,419.31,449.77,416.64,450.84Zm-5.28-7.68c-.53,1.47-.1,3.9-.24,5.76,3.92.83,6.48-1.55,4.8-4.8A8.82,8.82,0,0,0,411.36,443.16Z" transform="translate(-21.24 -311.78)"/><path class="cls-1" d="M428.16,440.76c-.16,6.4.32,13.44-.24,19.44A8.08,8.08,0,0,1,425,460V441.24C424.94,440,427.55,440.51,428.16,440.76Z" transform="translate(-21.24 -311.78)"/><path class="cls-1" d="M460.56,440.52c2.95,6.41,5.79,12.93,8.64,19.44-.58.46-1.93.15-2.88.24-1.19-1.69-1.82-3.94-2.88-5.76h-7.68a53.17,53.17,0,0,0-2.64,5.76h-2.88c.62-3.15,2.43-6.13,3.84-9.36s2.47-6.65,4.08-9.6c-.07-.39.23-.41.24-.72Zm-3.84,11.28h5.52a50.85,50.85,0,0,0-2.88-6.48C458.59,447.59,457.54,449.58,456.72,451.8Z" transform="translate(-21.24 -311.78)"/><path class="cls-1" d="M473.28,440.52c4.46,4.74,8.58,9.82,13,14.64.16-4.8-.32-10.24.24-14.64h2.4a161.53,161.53,0,0,1,0,19.68c-2.17.55-3.74-1.43-4.8-2.64-.56-.64-.88-1.54-1.44-2.16-2.67-3-5.83-6.38-8.64-9.6V460a8.08,8.08,0,0,1-2.88.24,161.53,161.53,0,0,1,0-19.68Z" transform="translate(-21.24 -311.78)"/><path class="cls-1" d="M504.24,451.8c-.56,2.24-.08,5.52-.24,8.16a8.08,8.08,0,0,1-2.88.24c-.56-5.84-.08-12.72-.24-19a.66.66,0,0,1,.48-.72c4.62.1,8.76-.51,10.8,1.92C515.83,446.83,511.54,453.5,504.24,451.8Zm-.24-2.64c4.07.69,7.43-1.28,5.52-5-1.18-.9-3.42-.74-5.52-.72Z" transform="translate(-21.24 -311.78)"/><path class="cls-1" d="M515.52,440.52h10.8c.46.58.15,1.93.24,2.88h-7.92c-.52,1.31-.11,3.57-.24,5.28,2.18.54,5.35.09,7.92.24v2.64h-7.68c-.53,1.47-.1,3.9-.24,5.76,2.73.15,6.06-.31,8.4.24V460c-3.29.55-7.59.09-11.28.24Z" transform="translate(-21.24 -311.78)"/><path class="cls-1" d="M555.84,451.8c-.21,1.78.35,6-.24,8.16-.58.46-1.93.15-2.88.24V440.52c6.67-1,14,.94,12.24,7.44C564.09,451.09,561,452.1,555.84,451.8Zm0-2.64c8.1,1.47,7.6-7.82,0-5.76C555.93,445.35,555.71,447.92,555.84,449.16Z" transform="translate(-21.24 -311.78)"/><path class="cls-1" d="M570.24,440.76v16.32c2.33.71,6.31-.23,8.64.48V460a57.77,57.77,0,0,1-11.76,0v-19.2A4.41,4.41,0,0,1,570.24,440.76Z" transform="translate(-21.24 -311.78)"/><path class="cls-1" d="M591.12,440.52v2.88H584.4c-.56,1.36-.08,3.76-.24,5.52h7v2.64h-7v5.76h6.72c.46.58.15,1.93.24,2.88-3.29-.15-7.19.31-10.08-.24v-19.2C583.93,440.21,587.83,440.67,591.12,440.52Z" transform="translate(-21.24 -311.78)"/><path class="cls-2" d="M155.76,451.08c-.18-4.51,1.68-6.77,4.56-7.2,7.07-1.05,7.28,8.72,1.68,10.32C159,455.05,156.89,453.29,155.76,451.08Zm4.56.72c4.29.58,4.26-6.72-.24-5.28C157.34,447.39,157.79,451.46,160.32,451.8Z" transform="translate(-21.24 -311.78)"/><path class="cls-2" d="M55.92,448c1,.31,1.51,1.21,2.16,1.92-.95,3.37-2.18,6.46-3.36,9.6a5.2,5.2,0,0,1-1.92-1.68,4,4,0,0,1,.48-1.68c-.6-1.24-2-1.68-2.64-2.88-.66.14-1,.6-1.68.72A3.06,3.06,0,0,1,47,452C50.12,450.8,52.79,449.15,55.92,448Zm-3.36,4.56c.73.23.75,1.17,1.68,1.2-.11-.92,1.41-2.46.48-2.64C54.21,451.77,52.94,451.7,52.56,452.52Z" transform="translate(-21.24 -311.78)"/><path class="cls-1" d="M67.2,456.84c-.09.79-.7,1.06-1,1.68a8.84,8.84,0,0,1-2.64-1.92,64.39,64.39,0,0,0-4.56,6,7.42,7.42,0,0,1-2.16-1.44c1.34-2.1,2.89-4,4.32-6-.54-1-1.86-1.18-2.4-2.16-.13-.85.85-.59.72-1.44C62.48,452.92,64.61,455.11,67.2,456.84Z" transform="translate(-21.24 -311.78)"/><path class="cls-2" d="M154.32,458.52c1.65-.51,2.31-2,3.84-2.64.7.1.78.82,1.2,1.2a28.34,28.34,0,0,1-5.52,4.56c-2.27-2.05-3.86-4.78-6-7A2.57,2.57,0,0,1,150,453C151.37,454.91,153,456.54,154.32,458.52Z" transform="translate(-21.24 -311.78)"/><path class="cls-2" d="M147.6,456.6c-.63,1.28-2.12,1.72-3.36,2.4,0,.73.51.93.72,1.44,1.45-.47,2.1-1.74,3.84-1.92.24.32.23.89.72,1-.57,1.43-2.09,1.91-3.36,2.64.09.79.7,1.06,1,1.68,1.48-.6,2.23-1.93,4.08-2.16,2.34,2.27-3.73,3.6-5,5.28-2.12-2.28-3.41-5.39-5.28-7.92,2-1.3,3.53-3,6.24-3.6C147.22,455.86,147.64,456,147.6,456.6Z" transform="translate(-21.24 -311.78)"/><path class="cls-2" d="M68.16,457.32c.77.35,1.34.89,2.16,1.2-1.47,2.85-3.12,5.52-4.8,8.16-1,0-1.15-.93-2.16-1C64.54,462.5,66.54,460.1,68.16,457.32Z" transform="translate(-21.24 -311.78)"/><path class="cls-2" d="M72.48,461.16c3.13-.73,7.32,1.37,7.2,5.28-.23,7.48-13.51,4.68-10.56-2.88C69.55,462.47,70.6,461.6,72.48,461.16Zm2.88,7.44c2.76-.85,1.71-6.75-2.4-5C69.46,465,72.34,469.53,75.36,468.6Z" transform="translate(-21.24 -311.78)"/><path class="cls-2" d="M81.84,464.28a10.63,10.63,0,0,1,2.4.48c1.07,2.05,2,4.24,3.12,6.24.51-1.65.94-3.38,1.44-5,.8.24,1.65.43,2.4.72-.48,3.36-1.62,6.06-2.4,9.12-.68-.2-1.48-.28-2.16-.48-.94-2.26-2-4.39-3.12-6.48a32.25,32.25,0,0,0-1.44,5,5.55,5.55,0,0,1-2.64-.72C80.33,470.29,81.11,467.31,81.84,464.28Z" transform="translate(-21.24 -311.78)"/><path class="cls-2" d="M115.92,476.76c-.25-3.12-1.48-6.5-1.44-9.12,3.47-1.31,8.58-1.52,9.84,1.68C126.23,474.15,120.9,477.24,115.92,476.76Zm1.44-7.68c.2,1.8.66,3.34.72,5.28,3.28,1.08,5.19-3.77,2.4-5.52A9,9,0,0,0,117.36,469.08Z" transform="translate(-21.24 -311.78)"/><path class="cls-2" d="M98.16,467.64c1.13,3.11,2,6.45,3.12,9.6-.68.74-1.66-.25-2.64,0a18.16,18.16,0,0,1-.72-1.92,16.18,16.18,0,0,1-3.36-.48c-.78.26-.91,1.17-1.44,1.68-1.05.17-1.35-.41-2.4-.24,1-3.44,3.11-5.85,4.56-8.88A8.08,8.08,0,0,1,98.16,467.64ZM95,472.92c.52.14,2,.57,2.4,0-.73-.47-.24-2.16-1.2-2.4C96.1,471.58,95.37,472.05,95,472.92Z" transform="translate(-21.24 -311.78)"/><path class="cls-2" d="M105.36,468.12v7.2c1.16.52,3.25.11,4.8.24v1.92H103c-.55-2.65-.09-6.31-.24-9.36A3.28,3.28,0,0,1,105.36,468.12Z" transform="translate(-21.24 -311.78)"/><path class="cls-1" d="M95.76,400.44c-.05.19-.24.24-.24.48.48,0,.31-.65,1-.48l-.09.43.33.29c.13.7.37-.37.72-.24l.28.36.44-.12v.24l-.6.48.6.48v.24l-.62.19.38.53c0,.2-.09.23-.24.24l-.28-.36-.44.12c-.26-.55-.54.87-1,1l-.28-.36-.44.12c.11-1.07-1.71-2.5-2.4-1.2l-.12.36.12.36q-1.84-.17-1.68,1.68c.5.14.68.59,1.44.48a1.15,1.15,0,0,1,.48-1.2h.48c-.31,1.23,0,1,.48.24l.24.12.24-.12H95l.12.36.36-.12c.41.84.48-.6,1-.48l.22.46.5,0c-.13.53.46.34.48.72l-.36.28.12.44c-.67.06-2.25.45-1.92.72h.24l-.12.36.36.12v.24l-.48.36.48.36c-.06.26-.48.16-.48.48l-.36.12.12.36c-.6.31-1-.7-1.2,0l-.31.31-.17.41c-.49-.07-.48-.64-.72-1-.57-.15-1.74.3-1.92-.24l.36-.28-.12-.44c.87-.18,2.73-.62,2.16-1.44-.09.53-1.5.23-.72-.24-.65-.07-1.37,1-1.92.24.08-.32.42-.38.48-.72-1,.2-1.09.3-1.44-.48a1.55,1.55,0,0,0-.24,1.2l-.44-.12-.28.36c-.36-.12-.6-.36-1-.48l.12-.44L87.6,406v-.24l.36-.12-.12-.36c1-.67-.14-.47-.24-1.2.65-.1,1.23-.9,1.92-.24.1-1.79-1.6-1.63-2.88-1.44.46.91-1.46,1.29-.24,1.44l-.12.36.36.12v.48l-.6-.12.12.6h-.24l-.36.12-.12.36a6,6,0,0,1-1.2-2.16c-5.83.33-11.54.78-17.52,1v-1.2c1.47-.69,4.54.22,6-.48L73,403l.24.12c.6,0,1.16,0,1.2-.48l.48-.2v-.52h.48l-.12.36.12.36c.88.71,1.56-.83,2.16-1.2l.12.36.36.12v.24c.48.55.8-1.11,1.68-1l.12.36.36.12c0,.19-.24.24-.24.48.62.29,1.34-1.37,2.16-1.68l.17.41.31.31c-.07.49-.65.47-.72,1,1.14-.22,1.29-1.43,2.4-1.68l.12.36.36.12c.48.55.8-1.11,1.68-1l-.09.43.33.29c.65.4,1.11-1.44,2.16-1.44l.12.36.36.12c0,.19-.24.24-.24.48.64-.16.91-.69,1.44-1l.12.36.36-.12c-.37,1.1-1.94,2.16-.24,1l.31.31.41.17a2.23,2.23,0,0,1-1,1c.79.14,1.72-1.64,2.88-1.92l.12.36.36.12c-.08.31-.42.38-.48.72.94-.1,1-1.05,1.92-1.2l.12.36Z" transform="translate(-21.24 -311.78)"/><path class="cls-1" d="M99.72,399.84l.12-.36a5.54,5.54,0,0,0,1.44.48c-.08.64-.63.81-1.2,1l-.12-.36-.36.12v-.48Z" transform="translate(-21.24 -311.78)"/><path class="cls-1" d="M101.13,402.76l-.09-.64.28.36.44-.12v.24a1.31,1.31,0,0,1,1-.24c.18.65-.48.48-.48,1,.76.12.85-.43,1.68-.24.21.77-.79.33-.72,1h.24l-.12.44.36.28c0,.23.29.19.48.24l-.12.36.36.12v.24c.24.53.83-.59,1.68-.24.13.53-.46.34-.48.72,1,.16,1-.64,1.92-.48-.08.32-.42.38-.48.72.74-.06.93-.67,1.44-1,.26.06.16.48.48.48l-.12.36.12.36c-.63,1.06-3.52,1.13-3.36,1,1.27,1.06,4.42,3.56,5.76,1-.74-.18-.46.66-1.2.48-.23-.45.72-.8,0-1l.12-.36-.36-.12c.15-.21.29-.43,0-.48,0,.23-.29.19-.48.24l.12-.36-.36-.12v-.24l.6-.36-.6-.36c0-.2.09-.23.24-.24,0-.93-1.11-.65-1-1.68l.54,0,.18-.51h.48l-.12.36.36.12c1.53,1.11,1.91,3.37,3.6,4.32.79-.25,0-.95,1-1.2-.22-.66-.84.43-1.2-.24.44-.6,1.4-.68,1.68-1.44h-.48l.12-.36-.36-.12c0-.41.41-.62,0-.72l.12-.36-.36-.12c.62-1.85-.81-3-1.68-4.08l.41-.17.31-.31c.91-.29,1.22-1.18,2.16-1.44l.12.36.36-.12c0,.92.2.09.72.24.15.88-1.51,1.2-1,1.68l-.12.36.12.36c-.28.08-.61.42-.24.48l-.12.44.36.28c0,.2.09.23.24.24l-.12.44.36.28c.49.32,1.79-.6,2.64-.72-.87-1.65-.7-4-2.16-6.24-1.35-2-4.61-3.17-7.2-4.56s-4.47-3.68-9.12-3.12c-.67.08-1.74.78-2.4.24l-1.92,1c-1.28-.67-1.94.58-3.12.72-.08-.48,0-.75.48-.72-.35-.71-.94.32-1.68,0,.08-.31.42-.38.48-.72-.43,0-.51.29-1,.24.42-1.47-1,.3-1-1-.6,0-.74.38-1.2.48-.75-.7-.73,0-1.44,0-.31,0-.38-.51-.72-.48s-.67.51-1,.48S85.31,388,85,388c-2.81-.15-6.56-.26-9.12,1,0-.48.65-.31.48-1-.57.39-1.38.54-1.92,1-.74-.24.28-.64.24-1-.93,0-1.11.81-2.16.72,0-.48.65-.3.48-1-.76-.12-.54.74-1.44.48l-.12-.36L71,388v-.24c-.35.12-.6.36-1,.48l-.12-.36-.36-.12v-.24c-.6,0-.74.38-1.2.48l-.12-.36-.36.12v-.24c-.77-.14-.74.45-1.2,0v-1.2c8.17-.7,16.27,1.86,23.28,0v-1.44a9,9,0,0,1,2.64-.48l-.12.44.36.28v.24l-.44-.12-.28.36H91c-.14.86.28,1.16.48,1.68.73.17.71-.41,1.44-.24.13.53-.46.34-.48.72h.72l-.12.36.36-.12c.38,0,.92.12,1-.24l.24.12.24.12h.72c-.09-.61.94-2.14,2.16-1.44l.12.36.36-.12c.54.21,1.62-1.1,1.68-2.16.62,0,.25,1,1.2.72.11.75-.65.63-.72,1.2.46-.1.6-.52,1.2-.48-.12.36-.36.61-.48,1,.43,0,.51-.29,1-.24l.28.36.44-.12v.24c.69-.11.75-.85,1.68-.72v.72c.69-.11.75-.85,1.68-.72-.6.92.18.58,1,.48-.08.32-.42.38-.48.72,0,.54.6-.31,1.2,0-1,1,1.42,2.56,2.88,1.92-.34,1.56,1.3-.36,1,1.2.76,0,.8-.64,1.68-.48.11.75-.65.63-.72,1.2a1.11,1.11,0,0,1,.72-.24l0,.52.52,0c0,.23.29.19.48.24l.12.36.36-.12v.24h.72l.12.36.36-.12c0,.2.09.23.24.24l-.12.6.6-.12c0,.2.09.23.24.24l-.12.6.6-.12c0,.23.29.19.48.24l-.12.36.36.12c-.17.19-.37.66,0,.72L118,396l.12.36c.68.31.13,1,.24,1.44.36,1.61,1.61,2.73,2.16,3.84.21.77-.38.74-.48,1.2,1.67-.84.64-3.36.24-4.8l.44.12.28-.36h.24l-.12.36.36.12v.48h.48l.12.36.36-.12c0,.2.09.23.24.24l.12.36.36.12c-.15.21-.29.43,0,.48l.12.36.36.12c0,.19-.24.24-.24.48.74.18.46-.66,1.2-.48l-.12.36.36.12c-.28.3-.84,1.27,0,.72l.12.36.36.12v.24c1.83.57,4.32.48,6.72.48-.21-.59-1.67.07-1.92-.48.4-.48.64-1.12,1.44-1.2l.12.36.36-.12c0,.23.29.19.48.24l.12.36.36.12c-.11.21-.21.43-.48.48,3.8.68,8.32.64,12.24,1.2v1c-7.3,0-15.27-1.36-23.52-1.2-2.14.74-3.3,2.46-5.28,3.36-.44,1.48-1.4,2.44-3.6,2.16-.62.83-1.86,2.29-3.36,1.44-.67.5-.48,2.52-2.4,2.4l.12-.44-.36-.28c.36-.44,1-.6,1.2-1.2-.43-.14-1,.7-1.2,0,.19,0,.73-.79.24-.72l.12-.36-.36-.12c0-.2-.09-.23-.24-.24l.12-.6-.6.12c0-.2-.09-.23-.24-.24l-.12-.36-.36.12c.23-.86-1-.42-1.2-.24l-.29-.33-.43.09c.69-1.59-.11-3.28-1.68-3.36l-.12-.36-.36.12v-1.44Z" transform="translate(-21.24 -311.78)"/><path class="cls-1" d="M107.69,402.91l-.17.41c-1.4-.76-2.68-1.64-4.08-2.4,1.27-.75-.81-.69-.48-1.92l.36.12.12-.36h.48l-.12.6.6-.12h.24l-.12.36.36.12v.48h.48l-.12.6.6-.12-.12.6.6-.12c0,.23.29.19.48.24l-.12.6.6-.12c0,.2.09.23.24.24l0,.5.5,0Z" transform="translate(-21.24 -311.78)"/><path class="cls-1" d="M110.28,403.2l-.12-.36h.24l-.12.36.12.36h-.24Z" transform="translate(-21.24 -311.78)"/><path class="cls-1" d="M110.76,403l-.12-.36a1.11,1.11,0,0,1,.72-.24l.12.36.36-.12c0,.23.29.19.48.24l.12.36.36-.12v.24a1.11,1.11,0,0,1,.72-.24,2.68,2.68,0,0,1-2.16,1.92c.22-.94-.83-.61-.48-1.68h-.24Z" transform="translate(-21.24 -311.78)"/><path class="cls-1" d="M110.33,397.87l-.17.41c-1.94-1.42-3.9-2.82-5-5,.06-.42.41-.55,1-.48l.12.36.36-.12c0,.23.29.19.48.24l-.12.36.36.12V394h1.2c0,.19-.24.24-.24.48,0,.54.6-.31,1.2,0-.21.19-.14.66-.48.72.06.62.41-.33,1,0q.06.78-.72.72c0,.2.09.23.24.24l-.12.6.6-.12c0,.2.09.23.24.24l-.08.56.56-.08v.24Z" transform="translate(-21.24 -311.78)"/><path class="cls-1" d="M112.44,385.76l-.12-.44c.38,0,.92-.12,1,.24l-.36.28.12.44c-.19.21-.66.14-.72.48-.28,0-.2-.44-.24-.72Z" transform="translate(-21.24 -311.78)"/><path class="cls-1" d="M115.08,386.48,115,386c6.43,1.56,15.08.82,22.56.72l-.12.44.36.28c-1.38.22-2.24,1-3.6,1.2.08-.32.42-.38.48-.72-2,.76-2.64,0-4.32,1a1.11,1.11,0,0,0,.24-.72c-1.19-.07-1.43.81-2.4,1-1.12,0,.26-.35,0-1-.75.21-1.12.8-1.92,1l.12-.36-.36-.12v-.24c-.91-.11-1.13.47-1.68.72l-.12-.36-.36-.12v-.24c-.9.15-1.18.9-2.16,1a1.11,1.11,0,0,0,.24-.72c-.74-.18-.46.66-1.2.48v-.72c-.21.11-.43.21-.48.48l-.44-.12-.28.36c-.81-1.11-3.43-1.68-4.56-1.68-.5-.13-.51-.37-.24-.72Z" transform="translate(-21.24 -311.78)"/><path class="cls-1" d="M137.88,387l-.36-.28c2.08-.27,5.08-.8,7.2-.24.09,1-.09,1.67-1,1.68.09-1.51-.77.13-1.44,0-.07-.39.23-.41.24-.72h-4.8Z" transform="translate(-21.24 -311.78)"/><path class="cls-1" d="M119.4,393.36l-.36-.12c.78-1-.15-1,.24-2.16l.36-.12.12-.36c.9.46,1.31,2.69.72,3.84l-.28-.36-.44.12c.09-.41-.19-.45-.48-.48Z" transform="translate(-21.24 -311.78)"/><path class="cls-1" d="M103.32,412l.12.44c-1,.35-2.77,1.22-4.08.48l.36-.28-.12-.44a4.44,4.44,0,0,0,2.4-1.92l.28.36.44-.12V411a4.31,4.31,0,0,1,1,.72Z" transform="translate(-21.24 -311.78)"/><path class="cls-1" d="M98.44,411.84l-.28.36c-.49-.07-.48-.64-.72-1-1-.18-2.84.44-3.12-.48l.36-.28-.12-.44c2.65,1,3.39-1.61,4.8-2.64l.28.36.44-.12c.07.33.6.2,1,.24l-.12.44.36.28c0,1-2.93.41-2.16,1.44l-.12.36.12.36c-.2,0-.23.09-.24.24l-.55.36.55.36V412Z" transform="translate(-21.24 -311.78)"/><path class="cls-1" d="M99.48,405.2l.36.28c-.11.21-.21.43-.48.48l-.28-.36-.44.12a1.11,1.11,0,0,1-.24-.72c.58.1.52-.44,1.2-.24Z" transform="translate(-21.24 -311.78)"/><path class="cls-2" d="M131.76,463.32a5.93,5.93,0,0,1,2.16-1c1.66.9,2.74,2.38,4.32,3.36-.23-2.88,0-3-.24-5.28a5.65,5.65,0,0,1,2.64-1.2V465c0,1.8.38,3.88-.48,5-.91.46-1.54-.72-2.16-1.2a64.89,64.89,0,0,1-6.24-5.28l.36-.12Z" transform="translate(-21.24 -311.78)"/><path class="cls-2" d="M131.16,463.92l.36-.12c0,.57.41.71.24,1.44-1.29.55-2.79.89-4.08,1.44a5.54,5.54,0,0,1,.48,1.44c1.53-.23,2.6-.92,4.08-1.2a3.76,3.76,0,0,1,.48,1.92c-1.36.32-2.48.88-3.84,1.2,0,.68.44,1,.48,1.68,1.74-.1,2.77-.91,4.32-1.2a2.69,2.69,0,0,1,.48,1.92c-2.08.72-4.26,1.34-6.24,2.16a35.47,35.47,0,0,1-3.12-9.12c2.27-.53,4-1.59,6.48-1.92Z" transform="translate(-21.24 -311.78)"/><path class="cls-3" d="M21.8,399.36a28.5,28.5,0,0,1,0-4.8" transform="translate(-21.24 -311.78)"/><path class="cls-4" d="M102.36,388.92c.1.11.4.32.6.48" transform="translate(-21.24 -311.78)"/><path class="cls-5" d="M85,395.16a3.14,3.14,0,0,0,.84-.6" transform="translate(-21.24 -311.78)"/><path class="cls-6" d="M86.52,395.4c.36-.37.89-.52,1.2-1" transform="translate(-21.24 -311.78)"/><path class="cls-7" d="M101,398.52c.57-.27,1-.9,1.56-1.16" transform="translate(-21.24 -311.78)"/><path class="cls-8" d="M100.56,397.56a10.38,10.38,0,0,1,1.32-1.08" transform="translate(-21.24 -311.78)"/><path class="cls-9" d="M100.8,396a2.65,2.65,0,0,0,.36-.48" transform="translate(-21.24 -311.78)"/><path class="cls-10" d="M122.76,395.76a4.51,4.51,0,0,0,2.16,0" transform="translate(-21.24 -311.78)"/><path class="cls-11" d="M91.32,397.08A3.94,3.94,0,0,0,92.76,396" transform="translate(-21.24 -311.78)"/><path class="cls-12" d="M87.84,397.32c.34-.21.68-.46,1-.68" transform="translate(-21.24 -311.78)"/><path class="cls-13" d="M112.8,396.6a.86.86,0,0,0-.06.7,2,2,0,0,0,.54,0" transform="translate(-21.24 -311.78)"/><path class="cls-14" d="M81.48,398.28c.11-.15.27-.2.6-.48" transform="translate(-21.24 -311.78)"/><path class="cls-15" d="M113.64,398.16a5.31,5.31,0,0,0,.72-.6" transform="translate(-21.24 -311.78)"/><path class="cls-16" d="M129.36,398.76a1.26,1.26,0,0,1-.48.24" transform="translate(-21.24 -311.78)"/><path class="cls-17" d="M70.68,401.76c1.18-.88,2.19-2,3.36-2.88" transform="translate(-21.24 -311.78)"/><path class="cls-18" d="M129.24,402a15,15,0,0,0,2.72-2.32" transform="translate(-21.24 -311.78)"/><path class="cls-19" d="M128.28,401.28a17.67,17.67,0,0,0,2.64-2.4" transform="translate(-21.24 -311.78)"/><path class="cls-20" d="M69,401.76c.61-.75,1.51-1.23,2-2" transform="translate(-21.24 -311.78)"/><path class="cls-7" d="M136.44,402.24A10.94,10.94,0,0,0,139,400" transform="translate(-21.24 -311.78)"/><path class="cls-21" d="M137.88,402.48a11.21,11.21,0,0,0,2.52-2" transform="translate(-21.24 -311.78)"/><path class="cls-13" d="M67.56,401.28c.4-.13.35-.65.72-.84" transform="translate(-21.24 -311.78)"/><path class="cls-22" d="M134.76,401.88c.6-.14,1-.78,1.56-1.08" transform="translate(-21.24 -311.78)"/><path class="cls-23" d="M140.76,402a2.77,2.77,0,0,0,.49.65A8.88,8.88,0,0,0,144,400.8" transform="translate(-21.24 -311.78)"/><path class="cls-24" d="M140,402.48c.23-.16.45-.32.72-.48" transform="translate(-21.24 -311.78)"/><path class="cls-25" d="M140.76,402c.38-.46.91-.77,1.32-1.2" transform="translate(-21.24 -311.78)"/><path class="cls-9" d="M110,401.88a3,3,0,0,0-.4.44" transform="translate(-21.24 -311.78)"/><path class="cls-26" d="M96.39,400.87c.85-.38,1.81-2.13,2.77-1.15" transform="translate(-21.24 -311.78)"/><path class="cls-27" d="M99.16,399.72a3.13,3.13,0,0,1,.56.12" transform="translate(-21.24 -311.78)"/><path class="cls-28" d="M99.25,401.71l.75.25" transform="translate(-21.24 -311.78)"/><path class="cls-29" d="M100,402a7.76,7.76,0,0,0,.92-.8" transform="translate(-21.24 -311.78)"/><path class="cls-30" d="M100,402a2.06,2.06,0,0,0,1.13.8" transform="translate(-21.24 -311.78)"/><path class="cls-31" d="M101.72,402.08a1.68,1.68,0,0,0-.4.4" transform="translate(-21.24 -311.78)"/><path class="cls-7" d="M103.32,404.48a6,6,0,0,1,.6-.2" transform="translate(-21.24 -311.78)"/><path class="cls-32" d="M104,405.36l.48-.24" transform="translate(-21.24 -311.78)"/><path class="cls-33" d="M108.84,406.32h1" transform="translate(-21.24 -311.78)"/><path class="cls-7" d="M102.36,399a1.34,1.34,0,0,1,.72-.36" transform="translate(-21.24 -311.78)"/><path class="cls-34" d="M103.08,398.64a5.8,5.8,0,0,1,1-1.08" transform="translate(-21.24 -311.78)"/><path class="cls-9" d="M103.08,398.64l.24.48" transform="translate(-21.24 -311.78)"/><path class="cls-35" d="M103.8,399.36c.35-.35.6-.92,1.08-1.08" transform="translate(-21.24 -311.78)"/><path class="cls-36" d="M105.12,399.24c-.1,0-.29.18-.6.36" transform="translate(-21.24 -311.78)"/><path class="cls-34" d="M105.24,400.8a10.75,10.75,0,0,1,1.2-1.32" transform="translate(-21.24 -311.78)"/><path class="cls-37" d="M105.72,401.28c.46-.35,1-.63,1.44-1" transform="translate(-21.24 -311.78)"/><path class="cls-38" d="M106.68,402c.62-.51,1.2-1.06,1.84-1.52" transform="translate(-21.24 -311.78)"/><path class="cls-39" d="M107.5,402.62c.46-.52,1.11-.83,1.58-1.34" transform="translate(-21.24 -311.78)"/><path class="cls-40" d="M107.69,402.91a3.72,3.72,0,0,1,1.33,1.16" transform="translate(-21.24 -311.78)"/><path class="cls-9" d="M109.56,403.92a2.57,2.57,0,0,1,.72-.72" transform="translate(-21.24 -311.78)"/><path class="cls-31" d="M110.28,403.2l.48-.24" transform="translate(-21.24 -311.78)"/><path class="cls-9" d="M111.48,402.72c.17-.25.27-.34.36-.48" transform="translate(-21.24 -311.78)"/><path class="cls-9" d="M112.44,403.2c.16-.24.28-.38.4-.56" transform="translate(-21.24 -311.78)"/><path class="cls-41" d="M114.6,405.12a14.32,14.32,0,0,0-1.2.84" transform="translate(-21.24 -311.78)"/><path class="cls-42" d="M113,405c.52-.2.78-.86,1.32-1.08" transform="translate(-21.24 -311.78)"/><path class="cls-43" d="M106.56,392.76c-.1,0-.23.18-.36.36" transform="translate(-21.24 -311.78)"/><path class="cls-44" d="M106.92,393.6c.38-.29.5-.32.72-.48" transform="translate(-21.24 -311.78)"/><path class="cls-45" d="M109.32,396.72a6.68,6.68,0,0,1,1-.72" transform="translate(-21.24 -311.78)"/><path class="cls-46" d="M110.08,397.4c.31-.31.69-.5,1-.8" transform="translate(-21.24 -311.78)"/><path class="cls-47" d="M110.33,397.87a15,15,0,0,1,2.4,1.68" transform="translate(-21.24 -311.78)"/><path class="cls-14" d="M115.32,398.16a5.32,5.32,0,0,0,.6-1" transform="translate(-21.24 -311.78)"/><path class="cls-4" d="M115.32,400.32l.56-.16" transform="translate(-21.24 -311.78)"/><path class="cls-48" d="M115.08,401.6c.39-.16.57-.26,1-.44" transform="translate(-21.24 -311.78)"/><path class="cls-49" d="M115.56,402.56l.72-.32" transform="translate(-21.24 -311.78)"/><path class="cls-50" d="M71.16,388.32a3.54,3.54,0,0,0,.24-.48" transform="translate(-21.24 -311.78)"/><path class="cls-4" d="M69.48,388.2a2.65,2.65,0,0,1,.48-.36" transform="translate(-21.24 -311.78)"/><path class="cls-43" d="M67.92,388c.1,0,.23-.18.36-.36" transform="translate(-21.24 -311.78)"/><path class="cls-51" d="M95.16,383.7c.62-1.18,2.15-1.14,4.06-.88,3.68.49,8.83,1.17,12,2.57.33.14.85.07,1.2.37" transform="translate(-21.24 -311.78)"/><path class="cls-52" d="M112.92,385.84c.75.16,1.4.48,2.16.64" transform="translate(-21.24 -311.78)"/><path class="cls-53" d="M137.88,387l-.48.16" transform="translate(-21.24 -311.78)"/><path class="cls-54" d="M125,389.64c.43-.29.85-.57,1.32-.84" transform="translate(-21.24 -311.78)"/><path class="cls-55" d="M122.64,390.12c.57-.37,1-.93,1.56-1.32" transform="translate(-21.24 -311.78)"/><path class="cls-26" d="M120.12,389.76c-.13-.32-.22-.64-.32-1" transform="translate(-21.24 -311.78)"/><path class="cls-56" d="M93,388.08c.09-.39.51-.5.6-.84" transform="translate(-21.24 -311.78)"/><path class="cls-57" d="M95,387a1.34,1.34,0,0,0-.48.84" transform="translate(-21.24 -311.78)"/><path class="cls-58" d="M98.28,385.92a2.8,2.8,0,0,1-.48,1" transform="translate(-21.24 -311.78)"/><path class="cls-7" d="M102.28,387.12a2.9,2.9,0,0,1,.32-.6" transform="translate(-21.24 -311.78)"/><path class="cls-29" d="M113.76,391.32c-.13,0-.32.3-.52.52" transform="translate(-21.24 -311.78)"/><path class="cls-45" d="M115.08,391.8c-.18.31-.64.17-.72.6" transform="translate(-21.24 -311.78)"/><path class="cls-59" d="M116.52,391.92c-.26.39-.77.51-1,1" transform="translate(-21.24 -311.78)"/><path class="cls-60" d="M116,393.6c.53-.45,1-.86,1.56-1.32" transform="translate(-21.24 -311.78)"/><path class="cls-4" d="M117.48,393.72c-.08.09-.42.34-.72.6" transform="translate(-21.24 -311.78)"/><path class="cls-61" d="M117.72,394.8c.64-.41,1.08-1,1.68-1.44" transform="translate(-21.24 -311.78)"/><path class="cls-62" d="M119.64,391c-.41-.34-.51-.83-.84-1.2" transform="translate(-21.24 -311.78)"/><path class="cls-33" d="M120.68,398.16a2.52,2.52,0,0,1-.18-.64c.12-.26.43-.49.46-.68" transform="translate(-21.24 -311.78)"/><path class="cls-36" d="M121.08,398.16a1.81,1.81,0,0,1,.6-.36" transform="translate(-21.24 -311.78)"/><path class="cls-63" d="M122,399.12c.23-.3.45-.74.84-.84" transform="translate(-21.24 -311.78)"/><path class="cls-64" d="M122.76,399.6c.35-.11.48-.54.84-.6" transform="translate(-21.24 -311.78)"/><path class="cls-4" d="M123.24,400.56c.65-.56,1.26-1.15,1.92-1.68" transform="translate(-21.24 -311.78)"/><path class="cls-65" d="M124.44,401c.82-.72,1.72-1.29,2.52-2" transform="translate(-21.24 -311.78)"/><path class="cls-66" d="M124.92,402.24a23.75,23.75,0,0,0,2.28-1.8" transform="translate(-21.24 -311.78)"/><path class="cls-67" d="M131.64,401.76c.64-1,1.9-1.48,2.52-2.52" transform="translate(-21.24 -311.78)"/><path class="cls-68" d="M132.6,402.24a14.72,14.72,0,0,0,3.36-3.12" transform="translate(-21.24 -311.78)"/><path class="cls-69" d="M99.72,412.64a1.58,1.58,0,0,1-1.28-.8" transform="translate(-21.24 -311.78)"/><path class="cls-70" d="M91.32,408.8a2.88,2.88,0,0,1-2.24-2" transform="translate(-21.24 -311.78)"/><path class="cls-26" d="M88,406.24a1.92,1.92,0,0,1-2.4-.88" transform="translate(-21.24 -311.78)"/><path class="cls-71" d="M73,403c.07-.65.85-.79,1.37-.93" transform="translate(-21.24 -311.78)"/><path class="cls-72" d="M74.33,402c.85-1.7,2.8-2.47,4-3.87" transform="translate(-21.24 -311.78)"/><path class="cls-27" d="M74.33,402l.55.37" transform="translate(-21.24 -311.78)"/><path class="cls-73" d="M75.24,402.24c1.5-.82,2.56-2.32,4-3.24" transform="translate(-21.24 -311.78)"/><path class="cls-74" d="M77.64,401.76a13.66,13.66,0,0,1,2.28-1.92" transform="translate(-21.24 -311.78)"/><path class="cls-75" d="M79.8,401.52A30.09,30.09,0,0,1,83.64,398" transform="translate(-21.24 -311.78)"/><path class="cls-76" d="M82.25,400.85c1.1-1.07,2.28-2.05,3.43-3.05" transform="translate(-21.24 -311.78)"/><path class="cls-77" d="M84.36,400.8a6.6,6.6,0,0,1,1.56-1.56" transform="translate(-21.24 -311.78)"/><path class="cls-78" d="M86.31,400.39c.54-.47,1.14-.89,1.65-1.39" transform="translate(-21.24 -311.78)"/><path class="cls-79" d="M88.92,399.6c.44-.28.71-.83,1.2-1" transform="translate(-21.24 -311.78)"/><path class="cls-80" d="M90.6,399.6c.72-1,1.9-1.42,2.64-2.4" transform="translate(-21.24 -311.78)"/><path class="cls-81" d="M91,400.75c.84-.76,1.67-1.55,2.57-2.23" transform="translate(-21.24 -311.78)"/><path class="cls-82" d="M93.48,400.32a14.35,14.35,0,0,1,2.52-2" transform="translate(-21.24 -311.78)"/><path class="cls-83" d="M95.4,400.32c.54-.33.9-1,1.56-1.08" transform="translate(-21.24 -311.78)"/><path class="cls-84" d="M92.44,385.2l.13.2c1.11.56,2.88-.3,2.59-1.7" transform="translate(-21.24 -311.78)"/><path class="cls-85" d="M95.16,383.7a27.28,27.28,0,0,0-2.64,1.1" transform="translate(-21.24 -311.78)"/><path class="cls-29" d="M118,396c.69-.81,2.05-.76,2.24-1.92" transform="translate(-21.24 -311.78)"/><path class="cls-86" d="M97.56,401.88a6,6,0,0,0,1.69-.17" transform="translate(-21.24 -311.78)"/><path class="cls-87" d="M99.25,401.71a9.22,9.22,0,0,1,.71-1.15" transform="translate(-21.24 -311.78)"/><path class="cls-7" d="M99.16,399.72c-.35.63-1.06,1-1.44,1.56" transform="translate(-21.24 -311.78)"/><path class="cls-54" d="M86.28,404.16a1.39,1.39,0,0,1,.72-.36" transform="translate(-21.24 -311.78)"/><path class="cls-88" d="M92.76,403.2a2.29,2.29,0,0,1,1.56,1.68" transform="translate(-21.24 -311.78)"/><path class="cls-26" d="M95.16,405.12c.17-.41.42-.78.56-1.2" transform="translate(-21.24 -311.78)"/><path class="cls-89" d="M95.16,409.2a1.6,1.6,0,0,0,1.44-.12" transform="translate(-21.24 -311.78)"/><path class="cls-90" d="M93.77,409.87a2.1,2.1,0,0,0,.91.61" transform="translate(-21.24 -311.78)"/><path class="cls-91" d="M99.64,407.76a8.42,8.42,0,0,1,1.34-2.22" transform="translate(-21.24 -311.78)"/><path class="cls-87" d="M101,405.54a1.91,1.91,0,0,1,.18-.9" transform="translate(-21.24 -311.78)"/><path class="cls-54" d="M95.64,407.52a1.51,1.51,0,0,0,.72-.36" transform="translate(-21.24 -311.78)"/><path class="cls-9" d="M95.52,408.24a4,4,0,0,0,1.68-.36" transform="translate(-21.24 -311.78)"/><path class="cls-92" d="M96.7,405a6,6,0,0,1,.7-1.78" transform="translate(-21.24 -311.78)"/><path class="cls-93" d="M97.32,406a1,1,0,0,0,1.76-.4" transform="translate(-21.24 -311.78)"/><path class="cls-94" d="M99.48,405.2c1.37-1.25-.87-2.2-1.94-2.41" transform="translate(-21.24 -311.78)"/><path class="cls-95" d="M102.28,410.64a16,16,0,0,1,1.11-2.37" transform="translate(-21.24 -311.78)"/><path class="cls-96" d="M101,405.54c.5.2,1.1.53,1.16,1.13a2.72,2.72,0,0,1-1.22,1.65" transform="translate(-21.24 -311.78)"/><path class="cls-97" d="M99,410.4a4.55,4.55,0,0,1,1.44-.36" transform="translate(-21.24 -311.78)"/><path class="cls-98" d="M98.33,411.36a5.13,5.13,0,0,0,2.11-.36" transform="translate(-21.24 -311.78)"/><path class="cls-97" d="M88,405.6a3.85,3.85,0,0,1-1.92-1" transform="translate(-21.24 -311.78)"/><path class="cls-36" d="M109.68,408.12c.1,0,.29-.18.6-.36" transform="translate(-21.24 -311.78)"/><path class="cls-99" d="M108.6,407.76a7.51,7.51,0,0,1,1-.72" transform="translate(-21.24 -311.78)"/><path class="cls-100" d="M104.52,410.4a6.37,6.37,0,0,0,1.68-1.2" transform="translate(-21.24 -311.78)"/><path class="cls-101" d="M104,409.68c.31-.44,1-.41,1.2-1" transform="translate(-21.24 -311.78)"/><path class="cls-90" d="M103.32,412c1,.41,2.17,1.36,3.36.72" transform="translate(-21.24 -311.78)"/><path class="cls-45" d="M105.84,410.76c.35-.06.49-.51.84-.6" transform="translate(-21.24 -311.78)"/><path class="cls-102" d="M72.36,401.76c1.35-1.33,3-2.29,4.32-3.6" transform="translate(-21.24 -311.78)"/><path class="cls-103" d="M131.16,463.92a1.79,1.79,0,0,1,1-.48" transform="translate(-21.24 -311.78)"/></svg>